<svg xmlns="http://www.w3.org/2000/svg" xmlns:xlink="http://www.w3.org/1999/xlink" width="57" height="58" viewBox="0 0 57 58"><defs><path id="imsca" d="M828.877 533.615v37.3c0 5.537-4.473 10.041-9.972 10.041h-45.728a1.293 1.293 0 0 1-1.288-1.298v-43.877c0-.717.576-1.298 1.288-1.298h31.318c.712 0 1.29.581 1.29 1.298 0 .716-.578 1.297-1.29 1.297h-30.03v41.283h37.758a10.048 10.048 0 0 1-3.289-7.445v-37.3c0-5.537 4.473-10.04 9.971-10.04 5.499 0 9.972 4.503 9.972 10.04zm-2.578 37.3c0-4.105-3.316-7.444-7.394-7.444-4.076 0-7.393 3.34-7.393 7.445s3.317 7.445 7.393 7.445c4.078 0 7.394-3.34 7.394-7.445zm0-6.727v-30.573c0-4.105-3.316-7.445-7.394-7.445-4.076 0-7.393 3.34-7.393 7.445v30.573a9.918 9.918 0 0 1 7.393-3.312 9.92 9.92 0 0 1 7.394 3.312zm-4.816 6.728a2.59 2.59 0 0 1-2.578 2.595 2.59 2.59 0 0 1-2.577-2.595 2.59 2.59 0 0 1 2.577-2.595 2.59 2.59 0 0 1 2.578 2.595zm-38.426-12.596v4.659h6.007v-17.25h-6.007v4.658c0 .717-.577 1.298-1.289 1.298a1.293 1.293 0 0 1-1.288-1.298v-5.956c0-.716.577-1.297 1.288-1.297h19.864c.711 0 1.288.58 1.288 1.297v26.577c0 .717-.577 1.298-1.288 1.298h-19.864a1.293 1.293 0 0 1-1.288-1.298V558.32c0-.717.577-1.298 1.288-1.298.712 0 1.289.581 1.289 1.298zm0 7.254v4.136h17.286V545.73h-8.702v8.912h3.607c.712 0 1.289.58 1.289 1.298 0 .716-.577 1.297-1.289 1.297h-3.607v7.04c0 .717-.577 1.298-1.289 1.298z"/><linearGradient id="imscb" x1="812.88" x2="787.89" y1="580.96" y2="523.58" gradientUnits="userSpaceOnUse"><stop offset="0" stop-color="#5a3081"/><stop offset="1" stop-color="#81306e"/></linearGradient></defs><g><g transform="translate(-772 -523)"><use xlink:href="#imsca"/><use fill="url(#imscb)" xlink:href="#imsca"/></g></g></svg>