<?xml version="1.0" encoding="utf-8"?>
<!-- Generator: Adobe Illustrator 19.0.0, SVG Export Plug-In . SVG Version: 6.00 Build 0)  -->
<svg version="1.1" id="Layer_1" xmlns="http://www.w3.org/2000/svg" xmlns:xlink="http://www.w3.org/1999/xlink" x="0px" y="0px"
	 viewBox="0 0 8.4 8.4" style="enable-background:new 0 0 8.4 8.4;" xml:space="preserve">
<style type="text/css">
	.st0{fill:#86B45E;}
</style>
<g id="XMLID_271_">
	<g id="XMLID_336_">
		<path id="XMLID_337_" class="st0" d="M5.8,2.9c-0.6,0-1.1,0.5-1.1,1.1v3.5H3.6V3.9c0-0.6-0.5-1.1-1.1-1.1c-0.6,0-1.1,0.5-1.1,1.1
			v3.4c0.7,0.6,1.7,1,2.7,1s2-0.4,2.7-1V3.9C6.9,3.3,6.4,2.9,5.8,2.9z M8.4,4.2C8.4,1.9,6.5,0,4.2,0C1.9,0,0,1.9,0,4.2
			c0,0.6,0.1,1.2,0.4,1.7v-2c0-1.2,1-2.2,2.2-2.2c0.6,0,1.2,0.3,1.6,0.7c0.4-0.5,1-0.7,1.6-0.7C7,1.8,8,2.7,8,3.9v2
			C8.2,5.4,8.4,4.8,8.4,4.2z"/>
	</g>
</g>
</svg>
