<svg xmlns="http://www.w3.org/2000/svg" viewBox="0 0 795.98 414.178"><g fill="#272421"><path fill-rule="evenodd" clip-rule="evenodd" d="M630.987 81.92l-.66 1.87 1.65 1.097 1.864-1.098-.657-2.307-2.197.439zm-157.135 49.877l3.011 2.39 1.382-2.18.461-1.803-1.674-1.048-2.009-.294-1.17 2.935zm-5.858 7.088l.961 1.215 3.348-2.055-.753-2.012-2.093-.084-1.17 1.803-.293 1.133zm74.136-31.153l5.054.659.218 2.527-1.976.549-2.306-1.429-.99-2.306zm13.29-8.347l.88 4.063h2.087l.438-3.624-2.087-1.758-1.317 1.319zm4.612 3.405v4.612l5.162-1.097 4.834-2.527-1.645-3.735-3.189-.44-2.415-.548-1.758 2.636-.989 1.098zm1.65-25.701l1.539 3.295 9.883.11 2.856-5.273-1.868-4.064-2.086 2.308-4.065-.33L566.844 75h-2.197l-.329 2.197-2.636-.11zm-3.846-16.476l-.657 2.416 1.977.44.767-2.087-2.087-.769zm-5.272 21.307l2.309 3.516 4.283.878.11-4.943-1.43-2.416-5.052-.328-2.635 1.866-4.063-.659-.33 2.746 2.416 2.526-1.317 1.539-3.845-3.186-4.614.44-.329 3.734.44 3.844 2.085 2.635.77 2.966 4.282 1.208 3.955-.329-.328-4.174 2.856.33 2.196-3.625 2.634.55 1.759-1.977-1.759-1.758-3.842-1.098-3.075-3.625 2.524-.66zm-19.331 9.226l.66 2.966 2.635 3.076 1.649-.659-1.978-3.625-2.966-1.758zm113.971-6.532l-1.331 2.581-7.182 4.047-5.217-4.96-5.222-.522-7.442 4.83-5.09 6.265-1.828 6.396-3.393 1.044-4.179-2.088-4.045.39-2.089 2.743-1.828-1.568-1.697 1.83-2.086-1.96 3-3.001-7.048-.523-4.047 3.525 2.22 7.57-4.048 3.916v-5.873h-2.74l-2.742 2.48-.651-3.004 4.046-3.654-4.308.262-12.792 6.526 2.48 3.002-3.655 3.525 1.436 2.61 2.612-1.306.26 3.786 3.132 3.656-4.83 1.174-1.435 1.958 1.306 3.132-3.916.654-5.221-1.567-1.567 5.873-8.878-1.566v13.053l-6.263-1.043-9.661-8.746 3.524-2.48-5.872-8.746-3.786-1.827-5.743 1.957-6.396-2.48-.915 9.921-11.616 4.96-4.438-3.003.652-2.348-11.877-.131-3.135 4.177-.783 2.742-.781-4.047-2.222-1.96-2.608 2.743-3.62 1.809-.2 2.487 1.69 2.254.034.046.012.054.766 4.022 5.595 7.912.045.063v5.228l2.853 3.424.16.19-.194.156-6.518 5.175-.376 3.005-.01.058-.03.048-1.528 2.29-1.151 5.578-.048.219-.219-.027-3.196-.376-5.16 4.202-.019.017-.022.012-1.734.894 4.092 6.256.034.053.006.06 1.39 17.487.009.101-.07.08-3.598 3.978 2.373 1.827.12.092-.03.15-.97 4.646 2.104 2.295.062.068v3.344l2.48 1.716.155.109-.065.178-1.194 3.176-.014.041-.025.032-3.73 4.513-.36 3.233h6.172l.067.054 2.644 2.075 2.833-1.888.185-.123.141.174 1.59 1.985.126.163-.01.012 2.08 3.153.135.205-.208.135-2.36 1.5v2.792l2.613.202 2.177-1.525.227-.157.126.244 2.7 5.174.03.055-.002.066-.22 6.147 3.469 1.952.16.09-.042.18-1.557 6.44 1.947 4.322 4.393 1.317.258.08-.107.25-3.356 7.835-.666 9.748 3.376 3.587 3.651-2.792.059-.045.079-.003 5.485-.219 1.957-3.483.158-.277.227.224 2.963 2.963 3.856-4.496 6.058-13.016.054-.114.126-.022 4.05-.675.068-.01.061.025 7.872 3.148.105.042.036.106 1.713 5.143 4.704-2.14.124-.056.115.078 2.924 2.025.056.04.028.062 5.297 12.011 6.884 12.76 4.33-2.835.02-.013.023-.008 4.499-1.8.132-.055.112.09 3.438 2.795 1.868-1.663.166-.146.162.149 2.753 2.542 2.533-2.533.073-.076.107.002 6.296.228.082.003.062.048 3.94 3.064 7.746-2.876.132-.048.107.09 2.581 2.152 10.658-4.885.073-.036.078.016 3.079.66 3.345-1.252-.416-2.502-.03-.174.156-.082 8.246-4.288-2.061-5.814-.05-.138.1-.107 2.77-2.969-1.146-2.864-5.275-3.45-.182-.12.101-.194 2.775-5.355-5.162-3.572-.222-.156.177-.202 2.404-2.808V256.07l.157-.061 10.122-3.846.397-4.572.02-.207.206-.015 6.002-.398 1.365-3.708-.202-3.85-.009-.163.15-.07 2.893-1.349-2.18-7.726-4.032-2.825-.144-.098.048-.166 2.645-9.37-3.665-9.78-.047-.127.08-.105 2.053-2.67.108-.139.163.057 7.125 2.441 4.547-.988 1.59-2.781.058-.102.118-.017 5.387-.8.96-3.454-8.964-18.598-.034-.074.015-.078.909-4.547.02-.094.078-.058 6.01-4.24-2.266-4.36-.084-.162.134-.126 5.82-5.456.06-.057.08-.008 5.182-.536 2.974-3.325.528-5.8-3.364-3.01-.076-.069-.005-.102-.178-3.75-2.149-3.218-.112-.172.152-.14 2.559-2.39-2.76-3.279-.153-.178.172-.156 6.728-6.183.032-.03.042-.015 3.025-1.246 2.244-3.282-4.238-8.827h-5.353l-.049-.02-4.181-1.819-.093-.04-.036-.095-2.183-5.638-.053-.135.095-.11 8.488-9.934v-4.882l-11.105-8.329zm13.172-65.039l5.63 6.671 1.231-1.231 1.536-7.697 1.843-3.591-2.048-2.77-5.12.41-3.072 4.617v3.591z"/><path fill-rule="evenodd" clip-rule="evenodd" d="M747.27 86.709l-1.28-14.133-3.917-2.219 9.269-6.396-1.306-4.308-17.23-1.436-2.087 2.742-4.701.39-.52 3.656-3.786-.26v-5.092l4.306-1.436 1.699-3.524-.916-9.267-1.697-.653-2.09 1.305-.128-3.393-4.047 1.565-2.741-3.132 1.045-5.09 3.392 3.001 1.957-1.566 2.873 3.133 1.696-3.916-.39-4.7 3.132-2.61 5.482.523 9.137-6.918-2.219-2.612 4.57.653-.13-4.438-4.96.914-1.438-3.133-6.656-1.305L736.2 9.79l-3.395-2.48 3.133-2.22L732.021 0l-11.093 6.527-.655 5.352-3.002 3.916 7.443 3.002-4.047 1.828-12.01-3.264-13.967 9.268-20.883 11.356-5.615 9.138.523 2.74-3.786 1.044-5.35 4.83 3.785 4.7 3.393-1.044 5.092 2.872-.523 5.09-4.698.522-3.135 1.827-6.656-4.177v8.485l-6.788 5.092-2.62 5.074 11.267 8.45.099.074v5.301l-.06.07-8.453 9.892 2.095 5.407 4.042 1.757h5.558l.067.14 2.127 4.428 3.51.528.118.017.056.104 2.252 3.985 4.707-2.266.087-.042.093.03 4.415 1.412 3.35-2.998.063-.057.084-.006 5.182-.357 3.847-4.025-.705-3.88-.039-.208.205-.066 3.876-1.233 1.056-3.695.045-.157.163-.017 3.3-.348 1.042-3.125.042-.129.132-.03 6.08-1.43 1.585-2.817.064-.116.132-.008 9.094-.546.18-.01.062.17 2.103 5.785 6.328-1.933.037-.012h.039l6.915.179 5.58-16.018.093-.267.25.131 3.367 1.773 4.308-1.306zm42.717 71.681l2.034 2.032 3.96-3.25-1.728-.406-4.266 1.625zm-17.022 85.7l.317 1.525 1.969 1.27.952-2.413-1.079-1.778-2.16 1.396zm6.22-2.918l-.317 1.46 2.157.823 1.143-1.27-2.095-1.84-.888.827zm-1.333 3.174l-.506 6.029 2.348 3.048 2.157-1.017-.444-5.966-1.713-1.586-1.842-.508zm3.364 13.39l-.318 2.222 1.017 2.222 2.792-1.27.382-1.458-3.873-1.716zm3.593 17.644l-1.04 1.991 1.56 2.252 1.906-1.816-1.214-2.256-1.212-.171zm.173 11.178l1.04 1.733 1.471-.52.349-2.775-1.907-.432-.953 1.994zm1.298 4.505l-1.558 1.645 1.213 3.295 3.64-.955-1.214-3.38-2.08-.606zm-2.427 13.691l-1.817 1.82.084 3.812.088 3.987.087 1.82h1.907l1.559-4.508-.346-4.417-1.562-2.514zm-5.457 14.906l1.905.086.606 2.51-1.385 2.169-1.819 2.598-.175 2.859-.52 3.553-.345 2.688-.867-.433-.694-4.678-.171-5.809 2.34-2.427 1.3-1.126-.175-1.99zm-6.875 31.005l.94-.415.375-6.772 1.165-1.353.225-1.77-1.239-.789-1.916.902-1.05.828.939 2.972-.338 3.838.9 2.559zm7.134-6.811l.64 1.466 1.913-.676-.413-2.03-1.05-1.47-1.05 1.017-.04 1.693zm-36.803-198.97l-1.525 4.57 5.791 6.5.812-9.344-3.149-1.422-1.93-.304zm38.184 17.061l1.523 2.336 5.789.914 2.336-1.218-1.421-2.438-4.266-.508-3.96.914z"/><path fill-rule="evenodd" clip-rule="evenodd" d="M674.88 213.374l3.493-2.304 2.35-1.959 3.264-.783-1.045-6.656 5.744-1.828 4.438-3.916 4.047-.131-3.002 4.308 2.873 2.48 4.176-4.7 1.045-7.439 3.783-1.436 3.002-3.916-3.131-2.35-2.741 3.395-2.871-2.743-.784-13.444-2.479-7.962.78-5.875 4.831-6.918 2.741-.13 1.306-3.916 5.611 7.703 3.918-.654.261-2.872-.915-5.874-.991-4.137-3.77-2.126-.1-.055-.02-.11-.72-3.77-2.426-2.254-3.923.355-.183.018-.067-.172-2.334-6.107-3.35-.704-.096-.02-.056-.081-5.373-7.808-3.794 3.967-.068.07-.092.005-5.19.359-3.393 3.035-.105.093-.131-.043-4.455-1.425-4.822 2.323-.205.098-.112-.2-2.306-4.077-3.067-.46 1.983 4.133.062.127-.08.114-2.364 3.457-.042.06-.067.026-3.05 1.257-6.527 5.997 2.76 3.278.149.177-.168.157-2.58 2.405 2.071 3.102.037.054.002.069.178 3.718 3.378 3.024.093.08-.011.122-.548 6-.006.082-.052.06-3.093 3.455-.062.07-.093.01-5.193.537-5.625 5.273 2.277 4.383.1.189-.175.123-6.103 4.307-.873 4.374 8.843 18.353 4.082-2.719.097-.066.112.039 9.24 3.08.135.045.029.136 1.025 5.133.017.086-.042.078-2.196 3.996 1.66 3.323 3.67-2.703.065-.047h4.942l.068.122 2.329 4.07zm7.128 158.286l-.5 15.235 2.741 4.699-10.704.916-3.524 7.7 9.92 10.182.26 3.786 5.483-5.221 9.397.129 6.788-5.483 4.048-8.091 1.957-22.193 2.741-11.616-1.823-13.594-2.682-.76-.146-.04-.028-.146-.652-3.252-4.46-3.187-4.996 3.746 2.966 3.213 4.725.396.257.02-.036.254-1.073 7.362-.028.202-.203.006-3.353.127.509 4.692.013.147-.12.08-4.82 3.214-.053.034-.064.006-7.92.527-1.986 2.603 1.539 3.076.14.278-.302.067-4.011.885z"/><path fill-rule="evenodd" clip-rule="evenodd" d="M677.638 355.237l3.476 5.682-1.303 4.18 2.124 6.077 3.673-.809-1.466-2.932-.068-.137.093-.118 2.14-2.812.068-.09.11-.006 7.964-.53 4.643-3.096-.52-4.804-.028-.259.262-.01 3.409-.128 1.006-6.903-4.562-.382-.093-.009-.064-.067-3.213-3.48-.183-.199.217-.16 5.353-4.017.143-.106.143.104 4.684 3.345.08.056.02.096.64 3.199 2.39.677 1.188-15.397-1.696-4.828-7.573-15.401-2.48-3.003-2.218-10.835-1.512-3.604-.53-.584-5.66-2.34-1.96-2.347 1.7-3.396-4.177-1.696-8.746-1.567-6.788 3.524-2.35 10.314-2.87-3.658-3.264 4.18-2.741-7.963-5.744 3.523-4.83-.782.26-4.57 6.267-15.662 1.566-15.663 1.826-7.573-1.564-6.265 2.087-5.611-.913-6.005 13.183-12.923 4.176.781.394-1.565-1.174-1.828 1.839-1.212-2.272-3.975h-4.502l-3.837 2.827-.23.17-.13-.257-1.847-3.697-.06-.113.063-.112 2.216-4.027-.983-4.91-8.99-2.997-4.14 2.759-1 3.609-.045.152-.155.024-5.425.802-1.584 2.774-.054.094-.106.021-4.725 1.027-.064.014-.065-.021-7.021-2.407-1.865 2.422 3.649 9.73.027.076-.02.074-2.622 9.281 3.962 2.775.074.05.022.082 2.258 8.01.057.197-.186.087-2.933 1.367.197 3.738.003.05-.017.046-1.437 3.901-.054.149-.157.011-5.952.396-.393 4.516-.014.152-.143.053-10.108 3.842v11.83l-.06.068-2.288 2.67 5.117 3.542.177.124-.098.187-2.776 5.35 5.155 3.37.064.043.029.07 1.232 3.081.057.144-.105.112-2.774 2.97 1.991 5.613 8.186-4.258.164-.087.128.137 2.7 2.924.11.118-.071.15-4.019 8.711.444 4.207.014.158-.135.078-3.02 1.724.203 3.444h6.873l.072.106 3.074 4.61 3.373-.211 5.502-5.064.884-3.752.042-.188h4.317l1.283-2.565.08-.157.173.025 2.924.45.148.022.045.147 2.7 8.32.047.142-.106.103-1.798 1.8-.056.054-.079.014-6.653 1.073 1.663 3.53.067.15-.11.12-2.65 2.87-.664 3.755-.011.065-.042.05-3.918 4.573 1.674 2.093.115.145-.112.148-2.649 3.534v4.27l7.063 3.53.054.028.033.048 5.685 7.872 3.556-3.373.073-.068.099.003 7.628.132.083.003.065.05 3.376 2.727 10.18-3.437.42-.14-.108.429-1.066 4.316z"/><path fill-rule="evenodd" clip-rule="evenodd" d="M648.757 362.321l3.904 6.17 4.176 3.654 8.875-4.305 1.174-3.657 6.659-7.44 3.632-1.666.952-3.842-9.889 3.337-.127.045-.1-.084-3.415-2.759-7.449-.131-3.663 3.477-4.73 7.201zm-71.042-23.196l8.894-4.572 6.79 2.347 8.222-1.302 12.01 11.877 14.88 15.402 5.875-2.348 3.654 1.697 2.611-1.307 4.96 1.567 2.686-.35 4.707-7.168-5.713-7.914-7.145-3.57-.134-.07v-4.728l.048-.064 2.586-3.448-1.682-2.104-.124-.157.129-.152 4.005-4.67.663-3.758.014-.073.047-.051 2.587-2.806-1.727-3.674-.14-.291.32-.051 6.892-1.113 1.64-1.64-2.606-8.034-2.6-.402-1.27 2.538-.067.138h-4.23l-.857 3.635-.017.073-.056.05-5.623 5.174-.064.055-.084.006-3.6.228-.138.008-.08-.118-3.075-4.614h-7.072l-.014-.23-.224-3.823-.009-.152.13-.072 3.013-1.722-.435-4.115-.006-.068.028-.058 3.98-8.625-2.463-2.668-16.548 8.605.421 2.525.034.197-.188.07-3.598 1.348-.067.025-.068-.014-3.073-.658-10.72 4.913-.14.065-.115-.099-2.592-2.16-7.74 2.876-.13.048-.104-.084-3.988-3.1-6.111-.217-2.627 2.624-.163.165-.17-.16-2.764-2.547-1.86 1.651-.154.138-.16-.132-3.488-2.831-4.342 1.735-4.225 2.767 5.34 3.558.207.14-.142.205-1.593 2.228 2.463 2.463 4.457-2.477.21-.118.122.21 2.132 3.775 3.418-.811.274-.068.022.286.503 6.712 3.483 1.993.23.131-.151.22-1.958 2.772 5.547 8.318zm116.77-44.594l-.184-.443 7.7 4.179 2.48 6.524 3.787 4.83 4.566 7.31 3.264 5.351 3.786 2.873 1.174 3.393 1.044 3.003 4.699 2.219.654 4.698 4.828 6.136.394-5.352-.656-4.048 3.787-.26 1.435-.652 3.525 1.828-2.87-6.005h-4.18l-4.438-1.957-5.089-3.657-3.263-8.353-1.828-5.353 3.915-2.219 7.31-.39-16.446-11.096-11.616-10.443-5.354-10.051-7.31-5.09-3.393-4.308-2.348 1.045-.522 2.48 4.306 3.003 2.35 3.524-1.306 1.696-2.09-.522-.65 3.003 4.175 3.13 4.18 9.53-.346-.14.53.584zM70.054 236.802l1.09 2.072-.188 4.809 3.322 1.775.017.008 2.402 1.545 2.224-1.54.068-.047.083.006 3.37.176 3.537-2.16.385-2.693.033-.235.239.03 3.954.528 2.087-.654.196-.059.093.183 1.558 3.12 3.514 1.252.78-.693.238-3.921-2.26-1.7-.09-.067-.008-.112-.162-2.53-1.435-1.357-2.19-1.603-.107-.08.008-.131.246-3.854-4.376-3.39-.077-.061-.014-.096-.403-2.58-1.66-.793-.138-.066V220.1l-.664-1.184-2.485-.15-.44 1.028-.051.122-.132.02-1.014.17-.14.025-.088-.112-.688-.84h-1.06l-1.623 1.471v2.851l-.047.064-.959 1.331.823.62.091.067.006.112.086 1.355.016.27-.27-.012-1.798-.079-.724 1.233.49 2.45.025.126-.09.092-5.6 5.67z"/><path fill-rule="evenodd" clip-rule="evenodd" d="M61.542 210.426l-1.885 2.34-.913 1.437.392 1.957 1.957.914-.261 3.003 4.96 3.133.13 5.742 3.894 7.4 5.402-5.471-.484-2.412-.016-.09.047-.081.844-1.442.075-.126.145.008 1.673.073-.06-.974-.924-.693-.19-.144.14-.193 1.05-1.46v-2.704l-3.595-3.685-3.562-.747-.045-.01-.04-.025-2.535-1.694-.073-.048-.024-.085-.633-2.14-1.286-.215-1.279.72-.146.083-.13-.11-2.628-2.261z"/><path fill-rule="evenodd" clip-rule="evenodd" d="M64.95 197.74l-2.16.93-1.044 2.088-1.567.392-.131 2.61 2.22 1.306-.54 4.88 2.628 2.261 1.204-.68.075-.04.084.014 1.52.254.15.025.045.147.651 2.2 2.42 1.62 3.589.75.071.016.053.053 3.554 3.643 1.602-1.452.07-.064h1.473l.074.09.672.822.742-.124.403-.936-1.607-2.173-.044-.058-.006-.07-.155-2.121-1.702-.544-.103-.032-.045-.097-.506-1.1-.023-.05v-1.832l-.795-1.035-.05-.067v-3.895l-5.71-7.463-7.112-.269zm8.088-17.44l-3.59-.296-2.611-2.48.26-2.35-2.479-.523-1.437 3.525-5.221 4.437.393 2.872 2.74-.13 2.088 1.697.784 3.655 2.35-.26 2.74.52v1.828l-3.408 4.484 6.463.245 8.046-5.89-.635-1.041-.038-.06v-1.469l.073-.07.957-.959.021-.02.028-.016 1.367-.807-.157-1.083-1.626-.116-.884.695-.13.101-.14-.08-1.438-.822-.062-.035-.034-.064-.89-1.71-.024-.047-.002-.056-.07-1.575v-.068l.035-.062.83-1.44-3.853-.25-.07-.004-.059-.043-.317-.233z"/><path fill-rule="evenodd" clip-rule="evenodd" d="M84.392 158.202l-.586 1.047-4.309 2.48-2.219 3.525-2.348 4.829-.261 3.915.652 2.35-1.697 2.088-.105 1.615.066.049 4.113.265 1.658-.73.047-.02h.055l3.257.068 1.776-1.644.076-.071.101.006 2.395.136.172.01.047.165 1.009 3.465.896-.526.074-.044.084.011 1.78.275.103.016.058.085.878 1.253 4.66-.46 2.782-1.79 3.087-4.427.12-1.069-2.125-2.59-.043-.053-.01-.068-.32-2.356-5.23-.927-.055-.01-.047-.034-2.53-1.849-.048-.033-.025-.049-3.354-6.295-.005-.011-.004-.009-1.061-2.52-1.006-.533-2.03.525-.05.012-.046-.006-.432-.066zM72.53 197.82l5.678 7.422.05.067v3.894l.794 1.035.05.067v1.891l.442.955 1.723.55 2.634.128.817-1.443.023-.042.035-.028 4.99-4.045.518-4.09-2.166-1.968-.035-.033-.021-.045-1.095-2.397-.025-.052.002-.055.133-4.161-6.577-3.486-7.97 5.835z"/><path fill-rule="evenodd" clip-rule="evenodd" d="M89.96 208.738l-4.842 3.926-.869 1.533-.072.131-.149-.008-2.539-.123.143 1.944 1.58 2.137 2.676.162.133.008.064.116.76 1.354.032.057v1.603l1.636.78.115.054.02.129.408 2.613 4.283 3.323 2.08-.96.553-1.29-.326-2.082-.603-1.271-.054-.113.063-.11.89-1.575.04-.068.07-.032 3.66-1.696 2.156-1.959.065-2.386-.514-1.601-1.928-1.53-.052-.042-.024-.063-.63-1.706-1.837-.184-2.883 1.342-.06.027-.067-.006-2.052-.206-.1-.01-.064-.077-1.762-2.14z"/><path fill-rule="evenodd" clip-rule="evenodd" d="M102.358 217.061l-.01.377-.001.104-.076.07-2.258 2.053-.029.024-.034.017-3.625 1.678-.789 1.394.563 1.189.013.03.006.037.343 2.19.01.068-.027.064-.615 1.436-.037.087-.085.039-2.165 1-.236 3.702 2.09 1.53.006.006.016.014 1.52 1.441.07.065.007.094.162 2.514 2.191 1.647 3.21-.557 6.416-3.31.81-1.122.068-5.33v-.02l.002-.017.617-3.629.012-.064.04-.05 2.809-3.33-2.254-2.497-1.333.849-.03.018-.03.01-1.165.343-.1.027-.09-.05-1.779-1.028-.058-.034-.034-.06-1.577-2.892-2.544-.127zm-14.795-21.592l-.131 4.12 1.05 2.296 2.222 2.021.094.086-.018.125-.533 4.207 1.787 2.17 1.887.189 2.883-1.342.058-.028.069.007 1.825.183.169-1.073.01-.06.033-.048 1.3-1.779.008-.01.01-.012 2.606-2.804v-1.854l.07-.07 1.56-1.563-.318-3.187-1.883-1.169-.06-.037-.032-.064-.818-1.703-3.978.193-.956 1.15-.135.16-.179-.108-3.46-2.106-.97-.302-4.17 2.412z"/><path fill-rule="evenodd" clip-rule="evenodd" d="M103.245 204.049l-2.592 2.79-1.258 1.725-.187 1.176.639 1.727 1.932 1.531.058.046.022.07.548 1.711.012.04-.001.04-.045 1.671 2.689.135.136.006.065.12 1.61 2.952 1.63.94 1.031-.304 1.477-.94.174-.11.136.152 2.492 2.762 1.674.58 1.51-.063 5-4.46.01-.008.014-.01 2.652-1.876-.62-1.674-1.019-2.784-5.123-8.629-3.125-.127-1.089.961-.14.125-.155-.103-1.233-.823-.004-.003-1.217-.852-.611.5-.043.033-.053.014-2.19.547-.08.021-.077-.035-1.223-.549-.839.78-.066.06-.087.004-2.434.13zm-1.805-10.467l.743-.928 1.185-1.715v-4.025l-1.857-1.025-.053-.03-.034-.052-1.439-2.26-.027-.044-.008-.05-.353-2.299-2.56 1.647-.048.031-.058.006-4.862.478-.14.014-.08-.116-.9-1.282-1.594-.246-1.086.64-.268.158-.089-.3-1.046-3.598-2.122-.121-1.772 1.64-.073.067-.097-.002-3.3-.068-1.59.7-.95 1.648.062 1.45.833 1.6 1.234.705.828-.652.074-.059.094.008 1.916.137.196.013.027.196.205 1.436.024.161-.14.082-1.478.873-.866.868v1.13l.68 1.117 6.668 3.533 4.264-2.464.092-.054.101.031 1.096.342.025.008.028.018 3.311 2.012.894-1.07.068-.084.108-.004 4.133-.201z"/><path fill-rule="evenodd" clip-rule="evenodd" d="M100.035 180.807l.389 2.525 1.375 2.16 1.93 1.067.127.068v4.463l-.043.062-1.232 1.78-.012.013-.725.907.794 1.646 1.924 1.195.101.063.012.12.343 3.423.01.115-.08.08-1.572 1.572v1.49l2.19-.119.892-.828.12-.111.146.066 1.292.582 2.053-.513.713-.582.142-.117.15.105 1.364.955 1.079.719 1.023-.904.072-.065.098.004 3.215.13 1.21-1.845.827-2.351-.773-.714-.016-.015-.012-.014-1.436-1.847-.026-.033-.014-.042-1.163-3.558-.025-.076.025-.074.82-2.533.016-.047.032-.038 2.67-3.079.011-.012.008-.008 1.652-1.52.372-1.861-2.108-2.492-5.018.067-.074.001-.06-.039-5.544-3.56-.12-.077.01-.14.125-2.1-.657-.329-.56.562-.057.056-.082.012-4.74.658-.05.428-.006.062-.034.05-3.093 4.437z"/><path fill-rule="evenodd" clip-rule="evenodd" d="M121.747 185.719l-1.332 1.224-2.626 3.03-.78 2.409 1.125 3.443 1.4 1.801.874.806.116.108-.051.151-.89 2.532-.01.03-.015.022-1.218 1.86 4.999 8.42 3.485-2.084.055-.033.063-.002 4.422-.147 4.862-2.932-1.017-2.845-4.759-6.098-2.353-1.03-.048-.02-.035-.038-1.808-1.959-.137-.148.121-.162 1.327-1.768.557-2.23-1.104-1.104-2.39 1.969-.175.144-.156-.164-2.262-2.412-.058-.063-.006-.087-.176-2.623z"/><path fill-rule="evenodd" clip-rule="evenodd" d="M128.194 189.491l.323.32.096.097-.034.135-.601 2.41-.014.047-.03.04-1.234 1.646 1.637 1.774 2.363 1.034.058.024.036.05 4.822 6.176.026.033.012.036 1.025 2.87 1.569-.312 1.14-1.64.066-.096.117-.008 2.916-.225.106-.007.078.074 1.14 1.072 1.828-1.045.53-6.342-2.874-1.58-.118-.066-.008-.135-.145-2.611-1.329-1.196-2.126.71-.097.033-.092-.05-7.018-3.73-4.168.462z"/><path fill-rule="evenodd" clip-rule="evenodd" d="M135.33 190.055l4.188 2.227 2.159-.72.134-.045.105.094 1.507 1.356.074.067.006.1.142 2.578 2.897 1.593.139.076-.014.156-.533 6.367 8.636.073 1.062-.707.063-.043.078.002 2.84.076.168.004.057.156.787 2.22 2.295 1.004.044.02.032.033 1.96 1.992 3.19-3.25.073-.074.104.002 7.747.147.143-4.883.003-.09.06-.068 1.501-1.637-1.697-1.697-4.086 1.021-.094.024-.086-.05-6.179-3.617-.058-.034-.032-.06-3.735-6.871-5.618-3.402-8.596-.444-2.945 2.061-.057.042-.07.003-3.34.145-.988 1.55-.03.048-.049.03-3.988 2.425zm-12.898-7.208l3.692-1.671-.509-1.73-.016-.055.01-.056 1.136-6.254.04-.214.216.014 3.19.22 4.042-3.933-.529-4.668-3.95.024-.025.256-.355-.315-4.354-3.88-2.608.16-.095.005-.072-.06-3.119-2.55-.062-.05-.02-.081-.553-2.294-2.322-1.654-.852.656-.392 2.128-.04.218-.219-.02-5.743-.492-.08-.006-.06-.055-1.927-1.687-5.605-1.466-.045-.012-.037-.026-2.953-2.138-.014-.01-.015-.015-1.561-1.566-1.514 1.514-.886 3.697-.01.042-.023.034-1.659 2.562-.055.087-.101.02-3.893.751.976 2.317 3.321 6.235 2.44 1.78 5.352.95.176.03.023.177.333 2.464 2.146 2.616.066.08-.01.1-.035.305 4.537-.63.627-.627.124-.123.157.078.957.48.143.071-.008.16-.13 2.117 5.364 3.443 5.06-.068.115-.002.073.088 2.14 2.529z"/><path fill-rule="evenodd" clip-rule="evenodd" d="M146.345 183.477l-3.156-3.014-.104-.1.039-.14 1.217-4.428-2.345-2.877-2.038.107-.078.004-.065-.042-5.295-3.42-4.068 3.958-.079.077-.106-.008-3.082-.213-1.088 5.982.552 1.88.06.202-.192.086-3.938 1.781-.38 1.902.203 3.01 2.044 2.181 2.388-1.966.17-.14.155.156.596.597 4.63-.515.076-.009.064.035 2.306 1.226 4.187-2.544 1.024-1.61.07-.108.124-.006 3.396-.146 2.713-1.898zm-5.879 93.419l-.14 2.963 1.566 3.787 1.828-.391 1.304-1.177 2.743 1.306-.131 1.829-.784 1.696.915 1.044 2.609.913 1.045 3.655 1.044 4.569-1.175 2.873 1.175 2.347 3.003-1.825 1.305.391.913 1.957.653 3.395 1.957 1.436 2.352-1.567 2.218.131 4.176 1.827-.13 1.957.913 1.567 2.09.394 1.695-1.83 1.829 1.83 2.35 1.434-.523 3.654.522 2.09 2.35 2.609 1.957.654 1.959-1.177 1.566.523 1.175 2.35 4.829 1.568 2.088-1.568 2.09-3.002-3.694-8.083-.33-.224-.066-.048-.027-.08-.808-2.42-.054-.162.135-.105 2.006-1.569.484-1.452-.991-2.149-5.175-1.584-2.408.637-1.248 2.939-.07.162-.178-.017-3.123-.303-.088-.008-.06-.062-2.846-2.846-5.263-1.202-.11-.024-.051-.102-1.143-2.21-.078-.152.117-.123 2.053-2.194-1.289-1.359-.073-.076.005-.103.076-1.372.01-.17.164-.048 1.893-.562.202-3.216-2.707.135-1.317.879-.33.219-.046-.393-.457-3.809-.022-.188.175-.067 1.226-.478.138-2.258-1.228-1.37-.064-.073.003-.096.15-5.325-1.478-2.066-.044-.066v-7.183l-1.426-3.152-.033-.076.018-.078.657-2.848-1.883-2.12-.079.331-.003.014-.972 3.216-.006.022-.012.023-.748 1.418-.033.064-.064.037-5.547 3.107-1.387 2.555-.048.087-.094.028-3.813 1.197-.02.005-.017.003-1.952.29-3.909 3.392-.06.053-.08.006-5.648.441-.148.2zm-27.434-2.28l2.492 2.373-.261 2.609-.652 2.09 1.435 2.612 2.872-1.306 1.436-2.874 1.698-1.825 4.047.783 2.218-1.828 1.566-.132 1.175.916 4.047-.262 3.001-.783 2.018-.446.122-.163.07-1.773-.214-1.494-1.985-2.867-.05-.073.006-.087.293-3.494-2.258-2.84-.033-.042-.014-.05-.82-3.216-.007-.02v-.023l-.14-1.858-1.864-.621-.024-.009-.015-.008-5.534-2.99-.125-.068-.003-.14-.07-3.018-5.412-.937-.044-.009-.037-.02-5.76-3.367-.12-.07v-2.019l-.804-1.405-2.79-.289-.119-.012-.061-.097-4.098-6.451-5.45 2.81-.032.018-.036.005-3.158.548-.242 3.957-.006.101-.075.065-.872.78.252 3.15 1.638 2.142 2.45.513.068.015.05.05 4.409 4.275.074.07v3.398l-.062.07-1.948 2.209-.115 2.08 1.572.113 1.817-.779.324-.14.014.357.13 3.533 1.106 1.598 2.575.514.19.04.006.193.14 5.918z"/><path fill-rule="evenodd" clip-rule="evenodd" d="M135.581 258.52l.135 1.826.804 3.145 2.286 2.873.06.08-.008.091-.29 3.506 1.968 2.845.033.048.007.055.225 1.57.003.02-.002.025-.063 1.596 5.409-.422 3.902-3.386.052-.048.07-.012 2-.295 3.704-1.162 1.373-2.53.033-.063.06-.033 5.548-3.106.703-1.334.963-3.188.347-1.46-2.763-3.997-1.182-1.054-1.266.866-.04.028-.047.01-1.124.223-.155.033-.09-.131-2.25-3.233-.68.508-2.829 2.978-.023.025-.03.017-1.644.971-.086.051-.097-.025-2.094-.523-.056-.013-.045-.04-3.204-2.832-2.163-1.587-1.999.214-3.33.436-1.32 1.876-.059.82 1.052.525.161.079-.031.177-.373 2.17-.023.13-.122.053-1.41.605z"/><path fill-rule="evenodd" clip-rule="evenodd" d="M127.942 251.586l.069 2.969 5.394 2.915 1.909.634 1.365-.583.32-1.863-1.034-.516-.146-.074.012-.16.074-1.048.004-.067.04-.056 1.421-2.02.063-.086.105-.014 3.44-.447.005-.003 2.094-.222.094-.01.076.055 2.242 1.647.006.002.012.011 3.17 2.8 1.941.486 1.532-.904 2.819-2.966.012-.014.017-.014.695-.522-2.084-2.57-.128-.16.132-.152.905-1.045-.197-2.233-4.205-.286-.115-.006-.066-.095-2.4-3.418-3.022-.144-.155-.008-.06-.143-1.108-2.733-3.3-3.934-.449.55-.586 2.932-.01.048-.028.04-.746 1.12-.103.157-.18-.062-5.061-1.758v5.361l-.062.068-1.086 1.222.97 1.87.05.092-.035.102-.45 1.273-.018.05-.045.042-4.109 3.89z"/><path fill-rule="evenodd" clip-rule="evenodd" d="M116.926 223.294l-1.464.061-.045.002-.043-.015-1.622-.562-2.793 3.313-.603 3.544-.067 5.386v.077l-.046.064-.89 1.23-.034.048-.05.029-.62.317 4.01 6.316 2.797.287.125.013.063.108.897 1.57.032.056v1.87l5.6 3.272 5.447.947 4.055-3.84.394-1.117-.998-1.927-.076-.15.111-.123 1.135-1.278v-5.291l-1.943-.132-.143-.012-.062-.128-1.366-2.953-3.127-.555-1.035.895-.218.189-.149-.247-1.945-3.216-.03-.048-.003-.056-.282-3.593h-3.46l-.06-.162-1.492-4.19z"/><path fill-rule="evenodd" clip-rule="evenodd" d="M124.938 216.86l-2.625 1.856-4.934 4.401 1.44 4.043h3.569l.017.225.295 3.755 1.765 2.92.905-.783.088-.076.112.02 3.365.598.126.023.053.115 1.36 2.938 1.767.12v-.081l.32.112 5.208 1.808.619-.926.588-2.944.011-.058.04-.048.663-.812 1.08-1.8.063-1.284-1.44-.826-.103-.058-.017-.119-.208-1.524-.887-.5-.476.772-.068.11-.13.005-3.507.143-.39.978-.073.18-.194-.032-1.794-.3-.12-.019-.055-.105-1.87-3.515-.021-.04-.004-.05-.516-5.15-4.022-4.073zm16.382 14.114l-.068 1.377-.003.061-.031.05-1.033 1.723 3.404 4.057.025.028.014.037.478 1.18 2.52-.725.013-.005.023-.003 3.33-.425.349-2.581.015-.12.106-.06 1.72-.971.032-.017.03-.009 3.427-.856.35-2.864-.94-5.056-6.523-2.103-3.734 1.058-.358 3.873-.01.11-.09.064-3.046 2.177z"/><path fill-rule="evenodd" clip-rule="evenodd" d="M123.55 211.994l.96 2.616.666 1.8 4.19 4.241.06.062.009.086.518 5.184 1.792 3.37 1.482.248.378-.94.058-.147.157-.006 3.535-.146.53-.862.123-.2.204.116 1.195.674.106.058.017.122.207 1.524 1.333.762 2.924-2.09.364-3.926.016-.168.16-.045 3.791-1.072.178-5.665.008-.225.224-.01 3.425-.148 1.843-1.475.135-.107.145.092 3.69 2.315 2.915-4.079.141-.2.198.145 3.467 2.506 2.412-1.064 1.055-1.252-2.054-2.676-4.223-4.297-2.35-1.027-.098-.043-.035-.1-.765-2.16-2.598-.068-1.058.705-.061.04-.076-.001-8.908-.072-2.037 1.164-.157.088-.132-.123-1.192-1.122-2.694.208-1.131 1.623-.056.082-.097.02-1.829.364-5.048 3.044-.053.033-.065.002-4.424.148-3.47 2.074z"/><path fill-rule="evenodd" clip-rule="evenodd" d="M157.823 218.51l-3.652-2.29-1.77 1.415-.062.049-.08.004-3.278.142-.17 5.435 6.556 2.113.138.044.027.142.97 5.236.01.036-.004.037-.325 2.66 1.765-.7.026-.01.03-.004 5.484-.761.055-.008.052.016 3.885 1.22.087.027.048.08 1.216 2.027 1.986-1.854-.147-4.34-.88-2.127-2.66-2.954-6.85-1.205-.06-.01-.05-.04-1.6-1.296-.064-.053-.019-.082-.664-2.948z"/><path fill-rule="evenodd" clip-rule="evenodd" d="M170.825 234.224l-1.883 1.755-.218.205-.155-.258-1.323-2.205-3.745-1.174-5.4.75-1.985.786-.003.022-.163.04-3.56.89-1.584.896-.358 2.648-.023.183-.186.025-3.492.447-2.457.704.4.993 2.987.14.119.005.068.099 2.4 3.418 4.297.292.208.013.02.208.224 2.545.007.098-.067.08-.84.968 1.969 2.43.016-.012.143.205 2.301 3.309.919-.183 1.379-.944.157-.106.143.126 1.345 1.196.02.017.018.025 2.841 4.115.063.09-.025.104-.159.663 2.193 2.466.084.093-.03.123-.665 2.89 1.348 2.983h.6l.85-1.913 1.066-2.362.068-.15.163.007 1.828.076.063.002.055.034 2.396 1.48.573-.8-.429-2.64-1.698-1.697-.085-.087.017-.12.38-2.666.036-.236.234.029 4.443.527 3.615-1.157.471-2.963-1.28-.19-.092-.015-.058-.07-.84-.989-.167-.199.21-.154 1.9-1.388.097-.644-1.653-.196-.172-.022-.037-.17-.229-1.066-.02-.09.045-.079.964-1.718-.619-.466-3.215 1.755-.078.042-.086-.017-3.808-.76-.103-.023-.055-.09-1.6-2.59-.018-.028-.007-.025-.99-3.123-.01-.034-.003-.04-.07-7.138z"/><path fill-rule="evenodd" clip-rule="evenodd" d="M171.892 242.93l.462 1.455 1.524 2.471 3.621.725 3.274-1.786.135-.073.125.092.914.686.17.126-.102.185-1.022 1.826.172.806 1.731.207.252.032-.04.247-.151.99-.016.1-.08.058-1.772 1.295.611.722 1.412.21h2.253l2.29-2.072.075-5.227.003-.258.254.02 2.092.143 2.176-2.393 1.355-3.537.017-.044.032-.034 2.1-2.253 2.431-6.26-1.228-.954-.016-.014-.017-.02-1.434-1.649-1.919.357-.12.023-.09-.085-2.524-2.376-3.933-.14-.066 1.36v.02l-.229 1.903-.012.095-.074.063-2.818 2.361-.118.099-.14-.068-2.243-1.045-1.74-.134-1.774 6.434-.042.151-.156.023-3.822.59-1.783 4.547z"/><path fill-rule="evenodd" clip-rule="evenodd" d="M187.991 251.58l-2.37 2.149-.07.062h-2.247l-.5 3.148-.024.146-.142.045-3.808 1.219-.052.016-.05-.005-4.26-.506-.33 2.312 1.668 1.665.054.054.012.08.457 2.818.017.099-.058.08-.762 1.065-.132.186-.193-.118-2.536-1.568-1.6-.067-1 2.213-.914 2.054-.064.145h-.828v6.839l1.478 2.07.048.065-.003.08-.15 5.315 1.231 1.373.068.076-.007.101-.151 2.514-.01.154-.147.057-1.193.465.388 3.228 1.041-.694.055-.037.069-.002 3.045-.155.272-.011-.017.27-.23 3.656-.009.168-.164.051-1.892.56-.06 1.094 1.375 1.45.157.163-.157.169-2.092 2.235 1.014 1.957 5.22 1.194.07.014.048.05 2.834 2.835 2.857.277 1.225-2.884.048-.107.116-.03 2.435-.647.356-2.196.304-2.286.023-.168.163-.037 3.111-.725.359-2.502.007-.045.024-.042 2.589-4.418.035-.056.057-.034 4.341-2.437.113-.063.116.06 2.157 1.114h1.052l.788-2.79.036-.13.127-.04 2.166-.67 1.2-.947-1.675-1.741-.978.457-1.596.837-.091.048-.098-.034-6.93-2.283-.04-.014-.037-.029-1.599-1.297-.045-.034-.024-.056-1.83-4.112-.036-.087.03-.09.836-2.437.03-.084.076-.045 3.274-1.98.068-.042.078.007 1.828.153.107.008.066.087 1.449 1.905.047.064.001.078.073 3.16 1.318 1.056 1.693-.775.059-.029.065.006 1.6.153.066.004.05.04 1.069.761.011.011.016.015 2.46 2.386 1.147-.637.814-1.63-1.509-2.01-.037-.05-.01-.062-.228-1.598-.01-.079.035-.07 1.58-2.932.34-2.385-1.283-.193-.032-.006-.03-.01-4.495-1.984-.025-.01-.029-.02-1.903-1.526-.056-.045-.023-.07-.692-2.143-1.834.477-.16.04-.097-.132-.839-1.143-.035-.048-.01-.059-.305-1.98h.002l-.268-1.207-2.064-.497-.17-.043-.014-.174-.212-2.682-4.812-.22-.233-.007v-3.792l-2.098.067zm14.819-41.308l-3.213 1.47-.094.041-.095-.036-9.141-3.524-3.086 3.459-.153.172-.18-.145-1.453-1.161-.091-.075v-5.59l-.756-1.793-.059-.14.103-.116 7.321-8.187-.306-3.536-2.124-2.578-2.878.455-4.155 2.716-.064.043-.078-.003-3.703-.154-.52 1.3 2.624 2.47.18.17-.173.177-3.225 3.33-.004.006-1.592 1.736-.148 5.032-.006.242-.24-.006-7.88-.149-3.126 3.182 1.965 2 .007.005.013.017 2.186 2.845.118.154-.125.15-1.219 1.446-.039.043-.049.023-2.59 1.143-.126.056-.113-.081-3.383-2.446-2.84 3.978.642 2.857 1.484 1.203 6.87 1.207.084.014.056.064 2.74 3.046.028.03.016.039.915 2.211.016.039.002.045.153 4.494.003.11-.003.002.076 7.546.276.874 1.615-4.12.052-.132.139-.02 3.805-.584 1.786-6.477.053-.193.198.017 1.982.15.041.004.043.02 2.145 1.002 2.625-2.202.216-1.803.077-1.586.01-.239.24.008 4.267.152.09.002.066.063 2.5 2.353 1.937-.359.135-.025.09.106 1.506 1.73 1.176.916 2.006-2.255 1.56-2.116-1.775-1.552-.082-.074v-2.821l.149-.063 6.761-2.846-.227-3.642-4.034-5.336zm150.918-72.622l1.82.202.336-1.211-1.213-1.348-1.48.472.537 1.885zm5.792 9.36l2.155.808 2.222-.404-.943-3.299-2.694 1.48-.74 1.415z"/><path fill-rule="evenodd" clip-rule="evenodd" d="M364.598 148.651l-2.63.156-1.307 4.699-4.307-3.916-1.175 4.046 4.57 4.96.262 4.307-8.356-7.44-.26-4.7 3.523-4.306.522-6.918-1.435.652-1.697 4.7-2.61 2.35-2.742.782-2.61 3.916.13 10.312-6.397 10.05.393 6.135h6.527l5.352 6.397v6.135l-3.787 4.57 1.044 2.087 3.003 1.697-5.612 1.305-1.566-5.874 4.175-7.31-1.826-5.482-6.396-.914-3.526 3.394-.39 7.702-5.875 6.003-5.352 1.96-3.654 3.915-12.27-7.57v-3.656l8.223 3.785 4.309-1.695 6.918-4.439 4.699-9.4-.783-5.089 7.962-18.928.913-3.262-.913-4.308 5.221-4.96 1.045-6.918-4.047-5.352 4.156-.543-.609-5.037-4.122-.305-.305 3.663.88 2.222-2.611-1.044-3.916 3.002-4.7 6.004-3.655 3.524-5.482 1.306-2.872 2.74 2.872 3.786-3.132 5.613-4.308 1.306-.13 1.958 3.786 3.916-1.307 3.654.654 2.35 1.435 2.089-4.83 4.437-1.566-2.48-1.305-5.613-5.098-8.18-2.919 2.432 1.715 3.05.067.118-.067.12-3.576 6.356 1.379 4.534.034.107-.062.094-2.216 3.425-.046.071-.081.028-3.562 1.187-2.374 2.77-.068.079-.106.005-8.982.4-4.572 3.775-.065.054-.086.001-2.941.047-.264 7.638-.002.073-.043.06-3.515 4.95 2.277 4.808 8.656.655.072.005.06.045 4.132 3.2.09.07.004.115.129 4.162 1.459 1.338 9.912.528.109.007.066.086 3.067 3.864.05.063.003.08.262 6.32 1.687 2.204.052.07-.001.086-.127 4.147h6.642l.069.066 5.97 5.436 8.226 3.584.071.031.04.065 3.036 5.015 5.366 3.273 5.45.52 4.457-3.278.16-.121.15.138 4.057 3.797 4.168-.13.132-.005.074.112 3.133 4.567 1.617.124.09.008.064.065 3.005 3.005 6.216-7.898.39-5.092.006-.07.04-.054 4.113-5.681-.76-4.572-4.692-3.519-.12-.09.025-.146 1.176-6.654-3.12-4.289-.054-.074.01-.093.983-9.243-3.913-5.088-.08-.103.04-.121 1.561-4.682-1.552-3.691-.109-.258.269-.073 5.048-1.358 2.135-5.425-1.119-6.396-5.278-1.32-.083-.02-.052-.068-4.85-6.403-.07-.092.028-.113.97-3.88.029-.114.11-.049 7.26-3.25.73-2.905-3.07-6.519-.032-.068.014-.077.775-4.269.033-.168.167-.028 3.177-.53-2.969-6.305-.018-.037-.003-.045-.048-.515zM255.837 304.074l3.664-.067 3 5.092 2.425.382.074-.082.798-2.129.021-.055.04-.037 4.288-4.022.664-3.05.014-.062.043-.048 2.582-2.85.092-.104.134.028 3.232.646.84-1.318.517-2.33-.889-2.41-2.748-1.048-.113-.045-.034-.118-.408-1.494-.033-.12.08-.099 1.31-1.573.401-3.999.01-.087.063-.061 4.617-4.48.171-.169.17.17 2.578 2.58.145.143-.117.169-1.412 1.999 1.8.338.053.007.043.032 4.674 3.339 3.57-.53.08-.012.073.042 3.343 1.87 3.256.133 4.406-3.023-7.875-5.906-.046-.036-.026-.048-3.802-7.468-.004-.012-2.803-6.271-2.19-.517-.015-.003-.022-.008-4.616-1.9-.042-.018-.033-.03-2.315-2.194-.685 1.831-.063.163-.173-.006-3.686-.132-.875 1-.03.034-.038.022-2.309 1.222-.078.039-.086-.017-1.79-.385-1.134.882-.065.051h-2.441l-.048-.02-2.915-1.269-1.253 2.382-.054.103-.115.023-4.132.808-2.66 4.593-.07.126-.147-.006-7.364-.24-2.005 4.242.122 4.138.006.187-.185.054-1.957.545-.673 3.277 1.675 3.876.005.014.007.023.682 2.558 3.099.946.053.018.039.036 2.87 2.6.077.071.004.102.085 2.675 4.227 3.697.07.061.011.096.269 2.42.002.018v.005z"/><path fill-rule="evenodd" clip-rule="evenodd" d="M220.951 299.561l7.353 1.705 4.175 2.612 2.481-1.958 3.655 1.958 12.27 2.35 4.46-2.036.006-.103-.258-2.312-4.235-3.705-.078-.07-.004-.104-.086-2.68-2.754-2.492-3.175-.972-.13-.04-.034-.129-.713-2.67-1.698-3.933-.03-.07.015-.076.68-3.312-3.49-1.659-2.585 1.292-.175.087-.124-.157-2.109-2.722-4.52-1.567-5.142 1.573.273 1.446.004.023v.028l-.09 4.662-.001.12-.096.07-6.994 5.227-.164 2.52 5.254 3.151.203.123-.116.205-2.028 3.615z"/><path fill-rule="evenodd" clip-rule="evenodd" d="M192.092 312.365l1.49-1.96 4.961-.393.39-3.525 2.35-1.303 2.482.13 3.002 2.35 1.826-1.696-2.219-3.658-1.044-3.653 2.48-2.612 2.218-.651 3.395 3.653 7.039.444.002-.02.007-.044.022-.04 1.946-3.474-5.177-3.106-.128-.077.01-.145.18-2.78.007-.113.09-.067 6.99-5.222.087-4.518-.61-3.219-1.87-1.789-1.007.618-.086.053-.1-.023-1.794-.449-.054-.014-.044-.037-7.438-6.375-1.294.327-.358 2.504-.006.042-.02.04-1.562 2.898.209 1.46 1.562 2.085.09.118-.068.135-.914 1.828-.033.067-.067.036-1.37.762-.157.087-.13-.127-2.575-2.499-1-.714-1.469-.14-1.77.812-.135.062-.115-.093-1.525-1.219-.09-.073v-.113l-.075-3.196-1.334-1.752-1.644-.137-3.13 1.892-.78 2.267 1.766 3.968 1.519 1.23 6.794 2.24 1.506-.79.01-.003 1.144-.534.156-.073.121.124 1.98 2.056.186.193-.21.166-1.447 1.143-.036.028-.044.014-2.081.646-.802 2.843-.05.176h-1.537l-.054-.025-2.092-1.084-4.172 2.343-2.53 4.316-.375 2.62-.023.166-.162.037-3.113.724-.282 2.118-.002.005-.345 2.154 5.142 1.574.106.033.044.099 1.077 2.33.04.088-.03.09-.539 1.615-.023.07-.058.045-1.927 1.51.7 2.101z"/><path fill-rule="evenodd" clip-rule="evenodd" d="M244.185 217.782l-1.274 2.183-.914 2.092-.014.028-.015.021-4.194 5.551-.01.014-.014.015-6.291 6.166-.032.032-.038.016-5.292 2.408-.114 2.376 1.698 3.271.075.147-.109.123-2.293 2.657-.36 3.502-.009.07-.045.057-1.481 1.85-.067.084-.11.006-4.996.238-.7 3.149-.02.098-.085.054-2.097 1.357-.174.112-.139-.154-2.006-2.228-2.788 4.415-.063.102-.117.01-4.59.484-3.934 4.653.698 2.165 1.82 1.455 4.437 1.955 1.444.216 1.525-.385.123-.03.094.081 7.49 6.421 1.639.41 1.08-.666.158-.095.137.128 2.062 1.972.057.057.015.075.262 1.394 5.168-1.582.074-.022.075.025 4.666 1.615.068.022.043.06 2.031 2.62 2.512-1.256.107-.053.107.05 3.684 1.756 1.83-.512-.118-4.005v-.058l.025-.051 2.095-4.44.069-.143.16.003 7.379.241 2.565-4.429-1.89-2.837-.046-.07.008-.084.246-2.716v-.011l.717-4.904-5.047-3.247-.067-.042-.03-.073-.862-2.222-.051-.132.09-.109 2.886-3.488-.595-2.972v-.002l-.986-5.306-.02-.101.061-.084 2.42-3.387-.12-3.943-2.789-6.67-4.742-2.797-.09-.053-.021-.104-.727-3.26-1.314-1.339z"/><path fill-rule="evenodd" clip-rule="evenodd" d="M276.686 189.258l-2.83.045-4.072 3.607-.062.056-.085.005-3.68.193-.143.008-.075-.12-1.203-1.89-5.933 5.284-.95 3.417-.02.07-.052.047-6.268 5.592-6.875 11.775 1.457 1.481.047.05.016.068.717 3.228 4.72 2.784.07.041.032.074 2.838 6.785.016.04.001.047.124 4.07.001.082-.046.067-2.408 3.37.968 5.2.617 3.082.023.116-.074.087-2.87 3.468.783 2.014 5.115 3.289.13.084-.02.154-.74 5.059-.24 2.612 1.839 2.755 3.967-.775 1.302-2.477.106-.2.207.09 3.073 1.337h2.177l1.156-.899.09-.07.11.022 1.815.391 2.19-1.16.922-1.053.075-.087.115.005 3.628.13.752-2.009.13-.343.265.253 2.547 2.413 4.552 1.874 2.293.539.118.028.048.11 2.847 6.37 3.778 7.42 7.97 5.979 4.386-2.51.512-2.69.02-.1.086-.06 2.667-1.732.074-.048.086.012 3.133.376 2.738-8.738.022-.073.063-.048 3.865-2.931.098-.076.116.034 4.132 1.202.04.008.028.02 5.54 3.693 8.456.134h.08l.062.045 5.87 4.306 7.06-4.053.135-.078.129.09 3.653 2.611 4.14-.516 4.539-1.947.82-2.109-5.152-2.963-.121-.07v-6.571l-3.065-3.063-1.642-.127-.116-.008-.067-.098-3.124-4.556-4.132.13-.099.002-.074-.068-3.984-3.73-4.371 3.217-.074.053-.092-.008-5.599-.534-.055-.005-.048-.029-5.464-3.334-.053-.03-.03-.05-3.025-5-8.193-3.567-.037-.017-.03-.025-5.927-5.4h-6.955l.007-.25.131-4.315-1.681-2.198-.045-.06-.004-.078-.263-6.318-2.948-3.717-9.889-.528-.086-.004-.063-.059-1.6-1.467-.076-.07-.004-.103-.13-4.149-3.983-3.084-8.725-.66-.14-.012-.06-.127-2.4-5.066-.06-.13.082-.114 3.556-5.006.26-7.541zM106.52 133.89l-1.178.944-.712 1.852.148 6.13.006.181-.173.056-4.526 1.46-.28 2.107-.026.192-.194.018-1.488.137-.409 1.494-.016.064-.046.044-.656.658 1.546 1.55 2.903 2.102 5.615 1.468.057.014.043.038 1.908 1.673 5.445.468.37-2.002.017-.09.074-.06 1.067-.82.142-.111.147.104 2.543 1.81.072.052.023.09.555 2.301 2.98 2.439 2.614-.16.101-.004.075.066 4.077 3.631.192-1.862-.708-2.285-1.85-2.015-.127-.138.101-.158 1.76-2.724-.314-2.995-1.622-3.166-.039-.076.017-.082.44-2.213-1.547-.21-.163-.023-.04-.16-.365-1.466-2.77-.076-.138-.004-.067-.121-.82-1.48-.064-.116.06-.115.705-1.334-.144-1.744-2.143-.717-.634.846-.083.112-.137-.015-1.478-.165-.077-.009-.058-.05-1.475-1.325-2.35.315-.163.021-.08-.142-1.357-2.399-1.55-.738-2.68 1.344-.257.127-.084-.274-.714-2.263z"/><path fill-rule="evenodd" clip-rule="evenodd" d="M134.718 169.117l5.294 3.42 2.083-.11.12-.007.079.097 2.502 3.069.078.098-.033.119-1.212 4.409 3.2 3.055 8.65.447.061.004.05.03 5.725 3.467.057.032.032.06 3.736 6.872 6.033 3.53 4.123-1.03.135-.033.095.096 1.785 1.785 2.885-2.981-2.565-2.415-.12-.113.06-.154.647-1.614.064-.16.172.007 3.795.159 4.021-2.631v-2.786l-2.769-1.386-.194-.098.076-.203.88-2.347-2.576-.86-1.69.769-.233.106-.094-.24-2.04-5.178-5.006-.156-.106-.004-.07-.08-3.205-3.685-3.037-1.918-.02-.014-.017-.015-2.905-2.745-.006-.004-.01-.011-8.556-9.688-.074-.083.015-.108.645-4.844.01-.072.049-.056 3.15-3.6-2.075-.692-.169-.056v-3.48l-2.57.031-1.737 1.66-.074.072-.102-.004-3.61-.164-.097-.006-.07-.07-1.693-1.776-1.62-.04-2.386.798-3.856 2.898-2.519 5.292-.072.152-.166-.014-4.197-.324-2.342 1.252-1.668 2.586 1.759 1.916.036.04.017.053.739 2.385.013.047-.005.049-.217 2.115 4.113-.026.219-.001.023.217.557 4.888zm-28.936-47.227l-2.527.288-4.047 3.132-2.35 3.264-4.568-.262-2.74 4.57-3.264.391-.13 3.524-4.83 3.133.26 4.569 1.959 2.48-2.219 2.742.523 2.218 3.13.784.654 3.262-.987 1.763.205.03 2.07-.534.092-.023.082.043 1.088.576 4.002-.772 1.579-2.441.894-3.725.017-.069.047-.047 2.515-2.516.436-1.594.045-.162.168-.016 1.464-.133.275-2.067.02-.153.145-.047 4.5-1.452-.146-5.996-.001-.046.016-.045.754-1.961.024-.06.05-.042 1.45-1.16 1.45-4.494-1.9-3.07-.033-.053-.003-.064-.169-3.764z"/><path fill-rule="evenodd" clip-rule="evenodd" d="M130.542 115.492l-4.313.16-5.353 1.957-.26 4.308.52 1.958-1.565 1.306-1.175-3.003-2.088-.13-3.264-3.134-4.045 2.611-2.733.31.169 3.735 1.924 3.112.06.095-.035.107-1.484 4.596.712 2.258 2.535-1.27.107-.052.106.05 1.723.823.068.031.037.069 1.315 2.324 2.3-.309.11-.013.083.074 1.501 1.346 1.263.14.654-.876.105-.14.166.056 2.461.822.154.05.013.16.164 1.974.005.07-.034.062-.677 1.283.69 1.243 2.815.08.185.003.045.18.37 1.484 1.64.224.257.036-.05.252-.474 2.386 1.6 3.13.021.04.004.045.291 2.765 2.145-1.145.062-.035.07.005 4.1.317 2.472-5.193.024-.052.05-.037 3.937-2.96.033-.024.037-.013 2.46-.822.04-.012h.04l3.442.08 1.797-1.44-3.326-4.342-2.124-.394-.146-.027-.044-.142-1.008-3.345-1.328.127-.223 2.024-.031.271-.266-.06-1.067-.248-.103-.024-.052-.09-.807-1.398-1.05.31-.151 2.38-.02.281-.276-.061-1.478-.328-.114-.027-.052-.106-.836-1.75-4.11.08-.13.002-.075-.11-1.65-2.44H125.4l-.073-.09-1.066-1.317-.125-.154.125-.154 6.67-8.067-.389-8.258zm57.514-16.255l1.089-6.69 1.567 2.219-.653 4.7 1.958 4.177.521 6.917 2.741 4.178.652 4.307 10.182 6.136 6.265-1.175 4.7-6.397 1.304-6.787-2.088-8.093.262-11.749-1.305-4.306-3.264-5.222-.521-4.047 1.434-.913 1.96 2.74 1.957-1.304-1.828-3.524-6.918-4.7-9.92-.913-1.959 1.436-4.96 2.872.13 3.915-3.393 5.482-6.656.131-2.218 2.789 4.87 6.493.066.088-.022.106-.77 3.854 4.03 2.016.065.03.036.063.686 1.171z"/><path fill-rule="evenodd" clip-rule="evenodd" d="M175.887 126.408l-.318-2.141.392-1.828-1.698-2.35 1.568-2.871 4.828-6.004 4.048-1.306 2.349-4.047.883-5.867-.95-1.619-4.134-2.066-.166-.084.037-.182.786-3.93-4.728-6.304-5.564 7-2.871-.131-3.657 2.48-2.609-.13-1.045 2.61-1.174 2.218-2.089 1.568 1.174 2.219-1.434 1.435-4.831-.783-1.305 4.568-.914 6.918-2.872 1.176-12.791-1.697-5.775.214.174 3.725 3.13-.62.038-.007.041.006 4.103.574.103.016.06.085 1.641 2.302.047.066-.002.081-.082 2.878-.002.086-.056.065-1.414 1.653.159 3.193.003.025-.004.021-.41 2.796-.014.097-.08.06-2.078 1.602-.595 1.564.808 1.692 1.084.242.144-2.266.012-.17.164-.048 1.394-.41.182-.053.096.164.85 1.471.698.161.215-1.948.022-.196.198-.02 1.724-.164.197-.017.058.19 1.024 3.393 2.068.383.092.018.057.073 3.258 4.253.487-1.342-.325-4.06-.005-.067.032-.062 1.478-2.877.014-.03.024-.024 5.333-5.755.097-.105.136.032 3.118.74.105.025.052.096.984 1.81.04.071-.014.081-.492 3.123-.013.083-.057.056-2.295 2.216-3.89 4.388-1.048 3.745 2.59-.03.246-.004v3.623l2.105.7 1.509-1.658.072-.08h2.01l.765-3.52.014-.068.049-.05 3.584-3.74-.873-1.456-.002-.003-1.131-1.938-.05-.088.027-.097.807-2.907.019-.062.043-.045 3.497-3.498.31-1.859.044-.263.258.068 2.406.643 1.483.296 1.843-1.998.032-.035.044-.02.29-.137zm54.971 26.442l-4.815 6.214 1.68 2.6.079.121-.067.126-1.086 2.017.786 3.301.042.175-.158.092-3.066 1.775-.129.075-.123-.08-3.973-2.542-3.799.158-.2.009-.047-.2-.624-2.818-9.574-7.376-1.06 1.594 2.664 4.388.05.082-.021.093-.807 3.713-.015.071-.051.051-2.288 2.29 1.034 1.775.03.048.003.054.161 1.937.023.252-.256.01-3.759.157-2.953 3.885-.146 2.34 3.55 1.478 1.497-1.8.045-.053.067-.022 3.39-1.13.2-.065.093.187 2.098 4.197.089.176-.153.123-7.825 6.227-.157 3.441-.005.113-.09.069-2.744 2.1-.11.083-.129-.052-3.418-1.399-2.458 1.996-7.277 8.137.714 1.7.021.046-.001.047v5.405l1.18.946 3.045-3.414.111-.125.157.061 9.204 3.548 3.21-1.466 1.803-4.463.07-.17.179.018 6.103.582.093.008.066.072 4.521 5.1 4.957 2.574 6.948.761 2.744-1.512.143-.08.128.105 7.502 6.154 4.614.647 8.346-14.292.02-.033.028-.026 6.243-5.57.95-3.419.019-.07.052-.046 6.2-5.522.214-.19.152.242 1.28 2.01 3.455-.18 4.077-3.61.067-.06.089-.002 6.26-.098 4.569-3.776.062-.05.082-.004 8.96-.399 2.35-2.74.044-.05.064-.022 3.544-1.182 2.109-3.258-1.378-4.526-.03-.1.05-.09 1.647-2.926-1.724-.314-1.12 1.68-.072.11h-2.251l-2.751 2.553-.094.088-.127-.03-3.281-.77-2.522 2.91-.066.075-.1.008-7.453.604-.088.008-.072-.053-32.336-23.097-3.11.972-.045.014-.05-.005-13.973-1.501zm-49.375-35.489l1.006 1.106 1.363-.91-.39-1.592-1.037-.78-.81 1.104-.132 1.072zm97.087 3.642l1.679-1.222v-2.746l-1.984-.458.304 4.426z"/><path fill-rule="evenodd" clip-rule="evenodd" d="M305.454 160.173l-2.486-4.58-6.528-7.048h-4.96l-.65 2.871-.132 4.309-3.525 2.088-1.96-.391-1.303 1.957-2.48-1.957 2.872-2.611v-2.872l-9.268-.13-4.568-3.394-7.05.652-2.48-3.393 4.178-.392 2.219-4.307-5.613-1.306-2.61 3.134-1.306-2.35-14.358-3.525-1.828 1.828-2.089-1.96-7.57 4.44-3.917-3.787 1.176-3.392-1.176-3.395 4.7-1.566 4.308 3.002 2.088-3.393-.131-6.136-5.743-6.264-1.697 6.134-7.833 5.09-.651 3.916-3.742 3.38 1.469 7.827 4.107 6.162 3.764.471.109.014.062.092 2.034 2.974 13.945 1.498 3.176-.993.113-.036.1.07 32.361 23.116 7.268-.59 2.552-2.946.098-.111.142.033 3.3.777 2.724-2.53.071-.066h2.18l1.138-1.704.087-.133.157.028 2.046.372 1.663-2.953-1.747-3.105-.099-.175.154-.13 3.14-2.614z"/><path fill-rule="evenodd" clip-rule="evenodd" d="M293.983 146.64l-2.9.306-2.287-3.815.61-3.51 3.661-.916 1.069 3.968-.153 3.968zm-44.809-17.984l2.247 2.956 5.289.14.61-1.97-.329-2.955-2.808-3.049-4.026 1.407-.983 3.471zm39.316 3.944l1.22-11.597.916-4.426 3.814-4.12 4.58-1.526 1.83-2.595-1.068-3.205 3.358 2.138 3.051-.306.765-2.29 1.983.153.152-2.289 2.442.916.458-2.289 1.831 1.983 1.374-1.83.457-2.749 2.596 1.832 1.678-1.525 3.51.763 2.9-3.357 22.28-.459 5.342-2.898.61-3.969-2.289-2.746-5.341 1.372-.917 1.984-9.156-.762-3.967-3.358-3.51 1.984-3.511-1.526-4.425 2.9h-3.663l-1.83 1.525-2.442-2.594-1.222 5.342-2.747.153-.305 2.135-6.866 2.137-2.443-1.067-1.526 1.83 1.985 1.984-2.748 2.595-4.426-1.831-.61 3.357-3.205-.152-.152 2.594-4.426 2.289-2.747-.916-3.053 2.289-.151 3.357 2.898 2.9.153 4.425-2.746 2.747 2.135 4.73 2.443.306.152 2.137 2.747.61 1.831.916zm-69.571 2.607l-3.93 3.549-1.828-3.395 2.611-.521-3.263-6.135-4.96.782-4.96-1.696-6.135.914-3.393 8.484-2.482-1.435-3.523-8.225.523-6.396-5.744.654-1.566 5.482 2.479 3.002-2.35 3.132-3.784-2.089-.653-4.405-.115.054-1.906 2.064-.092.102-.134-.027-1.615-.323-.014-.004-2.164-.578-.28 1.674-.011.078-.055.055-3.508 3.508-.761 2.744 1.078 1.85.968 1.61.093.159-.128.134-3.665 3.825-.792 3.645-.042.193h-2.187l-1.542 1.695-.01.012-3.33 3.805-.62 4.66 8.472 9.592 2.884 2.724 3.047 1.924.032.02.021.028 3.16 3.632 5.06.158.16.006.06.148 2.003 5.088 1.544-.701.086-.04.09.032 2.907.968.239.08-.088.235-.893 2.38 2.711 1.355.135.066v2.934l2.787-.44.137-.021.087.107 2.26 2.743.05.06.007.074.281 3.256 2.228-1.809.11-.09.134.054 3.424 1.4 2.544-1.946.156-3.437.006-.112.086-.068 7.756-6.174-1.917-3.834-3.125 1.043-1.57 1.884-.115.138-.164-.069-3.875-1.615-.16-.066.012-.172.16-2.583.006-.072.044-.06 3.067-4.036.07-.09.113-.007 3.622-.15-.137-1.632-1.102-1.889-.096-.162.133-.132 2.371-2.372.772-3.549-2.694-4.436-.08-.133.084-.128 1.292-1.936.146-.217.205.158 9.849 7.588.069.055.02.086.601 2.707 3.673-.153.074-.004.066.041 3.912 2.504 2.78-1.611-.765-3.215-.02-.09.044-.08 1.062-1.973-1.697-2.624-.095-.145.106-.135 4.896-6.318-1.936-2.83-3.766-.472-.111-.014-.062-.092-4.198-6.297-.025-.04-.01-.05-1.422-7.584zm130.545-89.086l1.621 1.52 2.229-1.924-1.114-1.62-1.62.405-1.116 1.62zm3.546 1.319l1.215 1.011 2.128-1.113.607-2.533-1.622-.405-2.328 3.04zm5.772-.305l2.127 1.925 4.253-2.128-.81-2.43-2.937-1.215-2.531 2.126-.102 1.722zm4.557-4.558l1.823.911 1.216-1.417-1.52-1.419-1.52 1.925zm8.001-5.063l.61 1.923 1.822-.708-.71-2.33-1.721 1.115zm-6.076-4.76l1.013.911 1.316-1.013-1.924-1.823-1.012.81.607 1.115zm-5.468 1.215l.303 1.52 2.026 1.316 1.214-1.824-1.113-2.227-2.43 1.215zm-3.951 1.62l3.85 3.444-.509 2.936-3.848-1.317-2.53-2.935 3.037-2.128zm10.736 11.04l.506 2.227 4.254-.1 1.721-2.836-1.417-2.33-1.824 2.634-2.734-.708-.506 1.113zm-11.647 5.063l1.114 1.62 1.013-1.316-1.013-1.72-1.114 1.416zM344.4 40.552l1.722 2.936 2.026-1.924-1.014-2.43-2.734 1.418zm4.962-.912l.407 1.721 1.113-.81-.911-1.923-.609 1.013zm-1.822-9.62l1.317 1.822 1.215-1.215-2.025-1.823-.507 1.215zm-11.95-3.647l.606 2.43 1.825 1.418 2.632-.202 1.621 1.317 1.012-1.216-2.025-1.823-1.824.556-3.847-2.48zm.505 6.177l-.201 2.128 1.923 1.924 1.925 2.431.607-1.115-.506-2.33 2.634-.607 3.341 1.115 2.128-2.127-1.925-2.229-1.62-.607-1.722 1.316-2.33.305-1.416.607-2.838-.81zm4.153 8.002l-.405 1.417 1.52.912.1-1.924-1.215-.405zM39.911 103.896l8.833 19.096 5.491-2.863.477-10.504-2.625-4.058-1.194 4.775-2.626-1.672-2.147-6.206-2.628 1.672-3.58-.24zm31.024 140.326l-.053 1.308-4.045-.129-1.567 2.348-2.09.262-2.478 4.437-4.177 1.568-3.003-4.438-7.048-.916-3.264 3.396 7.049 4.176-2.088 1.435-3.655-2.219-2.095 1.649 1.25 2.471h2.685l.075.09 3.082 3.806.1.126-.073.14-2.283 4.393 2.981 3.683.099.12-.07.14-.704 1.408-.171 2.937 1.752 2.151 1.624-1.867.11-.127.158.06 2.711 1.016.984-1.64.109-.18.192.082 2.176.904.15.062v3.454l2.579 1.205.14.065v3.347l1.336 2.17 3.165-.333 1.026-1.885.07-.126h5.295l3.12-3.465-.153-1.694-2.887-.34-.201-.022-.014-.202-.176-2.469-2.68-3.752-.066-.093.03-.112 1.42-5.151-1.75-2.63-.145-.215.225-.129 3.808-2.177.161-.09.132.13 1.373 1.372 2.652-.165 1.537-3.073-.537-5.19-.015-.146.125-.08 4.045-2.639-.687-6.355-3.157-.166-2.287 1.584-.133.093-.137-.087-2.536-1.632-3.1-1.654z"/><path fill-rule="evenodd" clip-rule="evenodd" d="M98.191 282.884l4.412-1.457.652-3.393 3.786-2.09 4.046-1.045 1.456-.443-.13-5.55-2.482-.497-.096-.02-.056-.081-1.202-1.736-.04-.058-.003-.07-.12-3.254-1.546.663-.055.023-.057-.006-1.87-.132-.24-.016.015-.24.133-2.403.004-.085.056-.064 1.942-2.2v-3.013l-4.282-4.154-2.47-.52-.088-.019-.055-.07-1.735-2.272-.044-.056-.007-.07-.254-3.183-3.592-1.283-.09-.033-.045-.088-1.51-3.019-1.94.607-.05.013-.054-.006-3.768-.501-.368 2.566-.015.112-.098.06-3.568 2.18.707 6.554.017.149-.127.082-4.045 2.636.53 5.112.007.07-.033.062-1.632 3.264-.061.126-.14.009-2.902.182-.108.005-.079-.078-1.318-1.317-3.42 1.955 1.668 2.502.063.09-.03.11-1.42 5.145 2.59 3.626 6.41.693.66-1.817.063-.174.186.013 2.175.183.18.015.037.18.69 3.274 2.463.329 2.183-1.379.084-.054.095.023 7.746 1.6.11.023.054.096 2.025 3.614z"/><path fill-rule="evenodd" clip-rule="evenodd" d="M79.187 312.7l4.097 1.491 10.964-.261-.914-4.309 2.741-.522 2.09-11.748-1.83-2.48-2.74-.651.392-2.219 3.394-3.135-3.024-4.201 1.458-.759 1.918-.845-1.937-3.458-7.541-1.558-2.008 1.266 1.38 3.624.025.064-.015.07-1.433 6.803 1.77 3.185.053.095-.035.1-1.792 5.197.711 3.194.072.33-.337-.036-3.198-.356-1.688.738-.187.081-.112-.168-1.155-1.736-1.034 1.242 1.68 4.005.069.165-.14.115-2.27 1.872-.02.016-.02.009-2.027 1.072 2.643 3.707z"/><path fill-rule="evenodd" clip-rule="evenodd" d="M70.597 314.365l4.072.087 3.893-1.795-2.574-3.608-.16-.225.245-.133 2.25-1.19 2.112-1.738-1.667-3.975-.058-.135.096-.112 1.335-1.603.208-.25.181.269 1.223 1.834 1.56-.68.061-.028.063.009 2.927.326-.652-2.936-.015-.067.02-.062 1.78-5.156-1.76-3.168-.044-.082.019-.087 1.434-6.819-1.373-3.606-2.575-.345-.172-.023-.035-.169-.687-3.265-1.81-.15-.662 1.818-.065.18-.19-.02-6.42-.693.148 2.046 2.882.34.195.023.017.196.182 1.994.01.105-.07.078-3.264 3.629-.072.079h-5.223l-1.019 1.867-.061.112-.127.014-3.445.362-.153.018-.08-.132-1.45-2.356-.035-.06v-3.179l-2.58-1.202-.14-.064v-3.439l-1.833-.764-.978 1.632-.105.174-.19-.07-2.744-1.027-1.568 1.802 1.775 2.177 1.854-.337.152-.028.09.13 1.219 1.74 2.455.703.12.033.042.115 1.08 2.88 2.53 4.335.044.077-.015.086-.713 4.267 2.68 4.822.017.03.006.032.908 3.808.007.03v.035l-.177 3.88 4.094 4.096.035.037.02.05.92 2.421z"/><path fill-rule="evenodd" clip-rule="evenodd" d="M45.384 327.938l-1.39 1.394.26 3.915 3.656 5.22-.26 5.483-.655 2.613 3.264 4.046 1.566-.654.914-1.564 1.957 1.042 2.09.654 2.48-1.567v-6.918l1.697-9.79 6.266-6.005.522-6.266-.653-2.741 3.036-2.286-.892-2.348-3.983-3.982-1.463 1.137-.068.053-.09-.003-4.262-.177-2.312 1.818.818 1.634.097.2-.187.115-2.058 1.277 2.615 3.736 2.804.525.153.028.039.149.906 3.446.055.205-.196.081-2.177.906-.053.022-.058-.003-2.198-.169-2.826 5.477-.139.27-.233-.197-2.177-1.84-1.293 1.455-.08.09-.123-.01-5.37-.47z"/><path fill-rule="evenodd" clip-rule="evenodd" d="M44.242 323.046l.927 2.5.388 1.918 5.118.45 1.369-1.54.157-.18.182.155 2.124 1.797 2.762-5.35.072-.143.16.014 2.3.177 1.927-.803-.815-3.093-2.749-.516-.097-.017-.058-.081-3.738-5.343-2.909-.17-1.392.618 1.584 5.961.052.198-.185.087-7.179 3.36z"/><path fill-rule="evenodd" clip-rule="evenodd" d="M42.498 320.544l.06 1.087 1.379 1.022 7.095-3.323-1.511-5.692-1.276.564-1.226 3.884-.022.07-.06.045-1.813 1.452-.033.026-.041.013-2.552.852z"/><path fill-rule="evenodd" clip-rule="evenodd" d="M37.009 312.323l.196 4.477 5.223 2.48.042.761 2.385-.795 1.72-1.376 1.238-3.915.034-.103.101-.045 2.91-1.292-2.28-1.84-.856 1.477-.092.158-.176-.045-5.916-1.433-4.43 1.418-.1.073z"/><path fill-rule="evenodd" clip-rule="evenodd" d="M33.153 303.324l2.748 3.033.13 4.177.833 1.292.02-.014.037-.014 4.533-1.45.065-.022.066.017 5.807 1.407 1.85-3.193-.821-2.63h-2.816l-.07-.064-5.374-4.836-3.814-.174-3.194 2.471z"/><path fill-rule="evenodd" clip-rule="evenodd" d="M26.432 290.807l3.203 5.37v3.263l3.192 3.525 3.295-2.55.07-.054.088.003 3.725.17-.17-3.905-.006-.138.113-.075 1.995-1.33-2.85-5.371-.967 1.934-.076.152-.168-.017-3.443-.362-.108-.014-.064-.084-1.888-2.576-5.941 2.059z"/><path fill-rule="evenodd" clip-rule="evenodd" d="M20.366 256.495l.262 4.57-1.436 1.696.654 1.958 2.088 1.567-.13 3.263 1.175 5.222-.392 4.827-.914 7.962 1.045 1.438 2.088-.915 1.372 2.3 6.206-2.152.169-.058.105.142 1.93 2.635 3.172.334 2.282-4.563.042-.084.085-.035 2.441-.977-.922-1.382-.08-.12.069-.13 1.36-2.55-1.49-1.323-.193-.17.184-.183 1.754-1.755.17-1.545.016-.138.126-.057 1.995-.907.2-.092.11.194 1.309 2.289 1.69-1.382.173-2.978.004-.046.023-.048.656-1.31-2.985-3.687-.1-.123.072-.141 2.285-4.393-2.91-3.591h-2.754l-.066-.135-1.584-3.129-4.777-4.345-.653 6.266-2.61-1.306-4.961.26-1.828 2.352-3.655-6.134-2.872 2.61zm4.902 28.729l-.18-3.081-.015-.234-.011-.232.231-.023.233-.022 3.188-.32v-1.918h-.002v-.246l.1-.072.098-.073 3.597-2.657-2.295-1.435h-.002l-.03-.02-.03-.02-.026-.027-.025-.031v-.003l-2.903-3.444-.07-.08-.068-.083.014-.106.014-.107.362-2.719.041-.3.04-.295.281.098.283.101 2.539.907.077.028.08.029.045.073.045.07 2.032 3.218h3.274l.013.23.013.228.17 2.873 2.013 1.677.091.08.095.074-.006.121-.005.119-.181 3.99-.004.076-.004.076-.045.059-.047.061-2.901 3.809-.36.472-.36.474-.075-.592-.074-.59-.412-3.302-4.546 5.018-.123.135-.122.132-.16-.076-.164-.075-3.444-1.632-.13-.063-.13-.061-.01-.143-.009-.146z"/><path fill-rule="evenodd" clip-rule="evenodd" d="M49.11 276.835l-1.806 1.48-.224.18-.142-.248-1.341-2.348-1.666.758-.166 1.494-.01.088-.06.059-1.632 1.629 1.44 1.28.143.127-.09.168-1.383 2.593 1.008 1.51.167.25-.279.11-2.634 1.054-1.081 2.162 3.114 5.876.103.193-.183.121-2.06 1.373.17 3.932 5.293 4.763h2.987l.053.172.907 2.9.03.102-.052.093-.893 1.542 2.588 2.086 3.005.178.116.008.069.095.855 1.225 1.893-1.174-.809-1.615-.088-.177.156-.124 2.538-1.993.07-.057.09.006 4.263.177 1.473-1.146.174-3.842-.892-3.744-2.702-4.864-.04-.076.013-.082.71-4.266-2.493-4.277-.01-.014-.008-.023-1.045-2.783-2.42-.694-.082-.022-.05-.073-1.18-1.685-1.842.337-.14.025-.09-.112-3.836-4.707zm-23.537 5.279l.182 3.081 3.445 1.632 4.902-5.409.355-.393.065.525.479 3.828 2.9-3.809.182-3.987-2.094-1.744-.082-.07-.006-.105-.174-2.977h-3.083l-.07-.112-2.105-3.334-2.538-.904-.364 2.719 2.9 3.443h.002v.003l2.596 1.623.303.188-.285.21-3.883 2.872-.002.002v2.356l-.219.022-3.406.34zm407.563 95.49l11.065 4.46 10.183 2.352 2.087 8.094 7.44 3.915 5.22-.132 7.443-4.438 5.743 1.829 6.002-.393 1.568 2.74 3.454.15 1.132-4.188.028-.104.096-.05 3.311-1.734-3.55-3.876-.174-.19.199-.16 3.463-2.803-1.315-3.949-.106-.32h6.923l4.036-3.365.084-.067.104.014 3.623.494 6.76-8.956.064-.087.11-.009 4.325-.331 1.304-2.12.042-.066.076-.03 3.704-1.516 2.822-3.486.324-3.719-2.96-1.974-.108-.073v-3.842l.096-.073 6.451-4.923 2.2-5.076.041-.098.099-.033 5.643-1.992-.32-4.51-3.47-3.137-3.864-.672-.143-.025-.048-.14-3.23-9.692-2.008-1.84-.157-.144.123-.174 2-2.836-.278-2.778-2.367 2.665-.09.099-.13-.02-2.008-.31-1.143 4.408-.034.138-.137.036-10.78 2.907-.16.045-.097-.135-1.81-2.466h-2.502l-.057-.03-2.33-1.245-1.267 3.008-.042.101-.104.034-5.133 1.71-.08.028-.078-.027-2.648-.936-.627 2.98-.036.171-.172.02-5.22.654.454 2.57 3.182 2.68.185.156-.157.186-2.687 3.193-.5 4.826 1.732 4.078.278-.815 1.062-6.642.006-.042.022-.04 1.733-3.064.082-.14.157.016 2.267.268.182.022.028.183.402 2.533.006.042-.006.036-1.062 5.969.396 5.813.924 3.171.025.078-.03.077-1.2 3.066-.02.05-.042.04-1.837 1.705-.597 1.076.637 2.033.026.081-.035.082-.8 2-.045.115-.12.03-1.958.49-.123 2.22-.006.06-.032.053-2.533 4.132-.048.078-.087.028-3.789 1.174-2.485 3.402-.08.112-.136-.012-2.845-.25-.758 4.315-.014.067-.045.05-2.132 2.402-.037.04-.048.019-6.827 3.021-.901 3.09-.037.121-.12.042-4.399 1.466-.25.081-.061-.252-.63-2.517-4.645-.904-.177-.034-.019-.177-.394-3.398-3.215-4.117h-4.365l-.067-.054-8.929-7.064-.028-.022-.018-.025-2.79-3.803-4.471 3.19-.065.048-.08-.003-2.555-.058.13.564.03.129-.093.096-1.371 1.37.5 1.997.031.124-.084.096-1.89 2.142 1.693 3.277z"/><path fill-rule="evenodd" clip-rule="evenodd" d="M369.97 396.476l16.799-6.317 6.003-.39 1.044 1.564 9.007 1.958.654 4.047 3.393 1.696 9.528 1.045 3.787.523 1.957 1.828 3.003-1.045 2.74-2.35 1.958-4.829-3.262-3.915.39-6.005 2.09-.654.13-2.741 2.742-.13.766-2.943-1.764-3.415-.076-.15.11-.122 1.916-2.171-.503-2.009-.033-.135.096-.094 1.372-1.374-.323-1.399-3.928.253-.083.006-.07-.05-9.831-6.856-.59 2.71-.038.176-.178.015-11.957 1.053-.758 3.159-.033.144-.14.037-2.33.611.243 2.191.016.149-.127.082-3.227 2.066-.126 2.144-.01.18-.178.041-2.21.52-3.954 3.294-.082.07-.105-.013-9.196-1.2-.061-.008-.048-.034-5.647-3.977-2.6-.2-1.685 4.427-.056.146-.156.012-6.535.42.41 4.514 3.915 6.956.108.195-.183.126-2.72 1.884.627 4.284z"/><path fill-rule="evenodd" clip-rule="evenodd" d="M333.708 383.188l.457 4.49 4.176 2.352.13 4.438 4.178.912 1.697 2.09 4.7-2.48.912 3.263 3.002 4.437 4.701.523 1.435-3.134 6.266-.262 4.155-3.089-.676-4.615-.022-.148.125-.087 2.662-1.843-3.83-6.81-.025-.045-.005-.053-.4-4.376-3.368 2.578-.194.146-.146-.19-3.065-3.938-.07-.093.025-.11 1.069-4.702-1.723-1.963-5.219-.154-.002.07-.185.037-3.283.657-.11.022-.089-.07-2.709-2.129-.18 2.177-.006.061-.033.054-2.627 3.938-.08.12-.145-.014-4.765-.432-3.815 1.272-1.537 2.115 2.369 1.186.103.05.026.11.656 2.845.06.263-.27.034-4.325.497zm28.23-11.09l2.895-1.038 2.133-1.064 3.586-3.586-.823-2.26-.025-.07.018-.074.64-2.568-.86-3.44-.028-.117.072-.093 2.384-3.03 1.223-3.671-3.496-1.236-.116-.04-.035-.118-.657-2.19-.035-.118.074-.098 2.76-3.61-1.478-3.591-.03-.073.017-.074.657-2.844.027-.116.107-.05 3.679-1.733 1.817-1.814-3.857-7.502-.041-.078.018-.085.558-2.604-4.164 1.784-.097.042-.096-.042-5.409-2.378-6.185.853-2.348 2.773-.072.086h-.113l-6.364-.03-.131 17.131 2.307-.298.241-.03.03.244.428 3.42 3.229 3.444.035.04.017.044 1.068 2.994 3.001 2.143.215.154-.17.2-2.27 2.685 1.828 2.03.085.096-.03.126-.875 3.5-.024.093-.081.053-2.303 1.466-.194 4.103 5.313.16.106.003.07.08 1.77 2.016z"/><path fill-rule="evenodd" clip-rule="evenodd" d="M300.709 344.36l6.306 30.265 3.392-.523 2.35-3.392 2.22.913.653 3.524 7.178 3.918 5.613-2.09 3.002 1.306 2.148 4.436 4.138-.478-.57-2.469-2.524-1.263-.257-.127.168-.234 1.752-2.406.045-.062.075-.025 3.94-1.311.048-.018.05.006 4.668.424 2.513-3.769.214-2.561.037-.452.355.28 2.975 2.337 2.988-.598.21-4.404.005-.126.108-.067 2.324-1.48.82-3.284-1.882-2.092-.142-.157.138-.16 2.236-2.647-2.849-2.033-.063-.045-.026-.072-1.076-3.017-3.249-3.463-.055-.06-.01-.077-.406-3.258-2.264.289-2.93 2.665-.08.07-.107-.01-5.608-.535-1.69 1.301-.15.115-.147-.115-1.733-1.362-4.873 4.738-.168.165-.168-.165-3.801-3.665-.055-.05-.015-.068-.669-2.803-3.12-4.163-12.867 4.424-.089.031-.085-.037-2.728-1.17-1.247.872-.133.093-.135-.084-2.049-1.28-2.649 1.555z"/><path fill-rule="evenodd" clip-rule="evenodd" d="M290.861 331.528l6.755.152-2.742 2.873 5.656 9.346 2.711-1.59.128-.072.124.075 2.035 1.276 1.227-.86.111-.079.123.054 2.765 1.186 12.946-4.45.167-.058.107.142 3.257 4.346.034.042.01.048.661 2.78 3.582 3.454 4.856-4.723.151-.15.167.133 1.752 1.376 1.616-1.241.076-.06.095.01 5.594.532 2.83-2.572.133-17.298h-2.248l-3.19 2.657-.194.163-.153-.2-1.357-1.766-.057-.073.006-.09.391-6.539-9.388-.263-.141-.006-.065-.12-1.696-3.129-4.875.132-.19.006-.05-.186-.94-3.482-3.056-3.989-16.437-7.822v5.457l-.12.07-3.1 1.81.905 3.487.086.327-.336-.023-4.018-.267-3.127 1.303-1.828 3.261.405 9.436.004.051-.022.054-2.136 5.07z"/><path fill-rule="evenodd" clip-rule="evenodd" d="M265.444 309.596l1.889.548.13 3.392-1.175 1.307.783 2.35-2.61 3.002.522 2.22 5.614 1.303.26 3.002 2.742.132 2.087.522 2.088 2.348-3.002 2.48v2.09l3.002-.913 2.612 1.435 2.348-.522 1.96-1.696 5.622-1.023 2.212-5.252-.404-9.454-.004-.067.033-.059 1.9-3.395.044-.074.077-.033 3.258-1.357.053-.023.056.006 3.738.247-.866-3.339-.047-.176.16-.093 3.137-1.831v-13.206l-2.242-2.373-.147-.158.136-.163 2.378-2.91-.21-1.805-4.422 3.033-.066.045-.08-.003-3.396-.138-.058-.002-.051-.028-3.32-1.86-3.586.532-.096.013-.08-.056-4.708-3.365-2.12-.396-.371-.07.217-.309 1.511-2.14-2.267-2.266-4.381 4.252-.397 3.985-.008.073-.048.056-1.277 1.534.343 1.252 2.735 1.042.105.04.037.104.951 2.58.024.065-.016.07-.543 2.444-.008.042-.024.036-.95 1.494-.09.14-.162-.032-3.261-.652-2.443 2.698-.665 3.062-.015.073-.055.054-4.306 4.035-.787 2.1z"/><path fill-rule="evenodd" clip-rule="evenodd" d="M356.564 275.139l-3.535-2.529-7.063 4.056-.137.08-.127-.094-5.937-4.353-8.451-.132-.075-.003-.057-.037-5.57-3.715-3.976-1.154-3.706 2.81-2.777 8.859-.06.194-.2-.025-3.246-.39-2.503 1.628-.514 2.696-.022.113-.097.056-4.479 2.564.252 2.148.012.102-.067.08-2.308 2.821 2.162 2.29.065.07v7.679l16.699 7.945.052.026.036.048 3.123 4.072.029.039.014.045.899 3.346 4.834-.13.148-.003.07.13 1.7 3.136 9.499.267.25.006-.014.25-.402 6.701 1.148 1.491 3.066-2.553.07-.058h2.908v.003l6.25.03 2.333-2.758.06-.073.093-.01 6.346-.878.068-.007.062.028 5.375 2.364 4.359-1.87.212-4.443.005-.113.088-.067 4.532-3.455.574-2.1-3.936-1.242-.056-.02-.043-.041-2.845-2.845-.06-.06-.01-.084-.437-3.721-.014-.126.097-.085 4.957-4.31.193-2.515-3.27-.41-.13-.016-.06-.118-3.664-7.547-12.566-1.95-.207-.03v-3.795l.055-.067 1.672-2.089-1.746-6.153zm16.205 61.469l-1.508.711-.612 2.655 1.502 3.647.052.13-.084.11-2.77 3.622.586 1.952 3.603 1.272.226.08-.075.224-1.315 3.94-.012.042-.025.031-2.334 2.972.847 3.384.014.058-.014.06-.64 2.556.85 2.337.054.145-.11.11-3.72 3.718-.025.029-.037.016-2.19 1.096-.018.008-.01.003-2.937 1.05-1.039 4.573 2.845 3.656 3.53-2.698.349-.268.019.203 6.391-.41 1.695-4.452.065-.168.18.014 2.678.205 1.9-4.005.042-.09.092-.034 3.408-1.278 1.029-2.27v-2.718l.13-.067 3.141-1.677-.205-2.66-1.301-3.91-.007-.022-.003-.01-.648-3.674-2.818-4.333-.073-.113.055-.12 1.225-2.655-2.153-1.37-3.638.427-.016.003h-4.123l-.056-.167-1.992-5.87zm-5.977-193.706l2.223 2.896 1.549-.673-.473-4.041-1.549-.808-1.75 2.626zm6.195-18.382l1.145 1.482 1.21-1.28-.536-2.02-1.55.472-.269 1.345zm42.562-71.363l4.886.896-1.141-3.662-3.419.08-.326 2.686zm4.071 9.2l2.687-3.582-.653-3.175 2.606-1.71 2.604-2.605 2.93 2.606 1.63 4.64.977 2.035-2.686 1.465v2.524l-6.676 3.011-3.419-3.093v-2.116zm-2.442 3.989l5.129 1.954-.734 2.442-2.36 1.303-3.42-2.361-.57-2.28 1.955-1.058zm4.558 8.141l2.28-5.618 6.268-3.094 1.14 4.317 1.628-.49.244-1.872 2.85 2.768-.245 3.663-2.116 3.42 1.79 2.116-.487 3.175-2.28 1.222-4.64-3.176-4.152-3.582-2.362-1.059.082-1.79zm16.364 3.175l-.57 7.327-2.768 5.047 1.06 3.825 4.557-3.662 4.803-.326 2.523-2.523.326-5.862-2.686-3.42-2.28 2.28-1.221-1.302.164-3.501-3.908 2.117zm13.43 10.584l.408 1.953 3.583.814-.163-1.384-3.584-2.197-.244.814zm-27.19 14.652l1.874 1.385 1.384-.814-.977-2.035-2.28 1.464zm-16.525-2.685l2.36 1.302.164-1.872-1.546-1.791-1.14.976.162 1.385zm14.573 7.814l.895.978 1.14-1.06-1.302-1.382-.733 1.464zM382.616 132.6l1.819 1.683 1.211-1.21-.471-1.887-1.549-.404-1.01 1.818zm4.377 2.155l1.01.741.672-1.28-1.145-1.279-.537 1.818zm2.627-4.915l1.009.673.606-1.145-1.549-1.01-.067 1.482zm1.818-2.694l1.144.875 1.077-1.548-1.75-1.28-.943.674.471 1.28zm-8.15-9.292l1.281.875 1.885-1.145-1.077-1.885-1.616-.47-1.55 1.345 1.077 1.28zm4.042-6.599l-.472 1.144 1.01 1.414 1.076-1.143.069-1.281-1.684-.134zm-3.044-46.34l-.295 1.53 1.576 1.582 2.22.05-.1-1.977-1.528-2.025-1.873.84zm9.86-11.905l2.069.642 2.268-.592-1.332-2.963-1.676-1.335-1.183 1.136-.245 1.877.099 1.236zm84.434 191.53l-1.58 1.751-.054.059-.078.016-3.752.79-3.398 1.511.187 3.771.98 2.545.038.096-.043.092-1.932 4.253 1.918 3.07.031.05.005.056.397 4.569.006.07-.032.063-2.982 5.762-.031.062-.056.034-4.963 3.056 1.864 3.17.082.138-.095.13-2.113 2.884 1.122 3.735 4.246 1.351.134.042.032.138.595 2.783.028.124-.087.093-3.12 3.313-.177 2.3 1.991.543.124.033.042.124.994 2.983.048.14-.107.107-2.34 2.34-.977 3.512-.084.307-.272-.16-4.37-2.584-.065-.04-.034-.07-2.084-4.547-4.03 1.832-.578 3.841-.01.076-.05.053-8.869 9.66.389 4.462.014.177-.165.067-2.384.995-.214.09-.099-.212-3.408-7.382-2.338 3.055-.07.092-.114.003-9.2.394-3.642 6.707 4.096 6.436.055.085-.023.098-.794 3.575-.037.166-.166.022-4.05.579-2.302 4.413-.791 11.874-.017.25-.25-.026-3.908-.39-2.78 1.295v2.323l6.69 5.99 10.046 7.007 4.048-.264.207-.01.046.202.157.68 2.595.06 4.6-3.285.196-.14.141.193 2.914 3.974 8.834 6.99h4.436l.072.093 3.334 4.267.042.053.006.07.382 3.286 4.623.9.151.03.037.149.604 2.412 4.03-1.343.806-2.765h-4.361l-.068-.141-.932-2-.093-.196.188-.113 2-1.202.042-.025.048-.006 2.743-.393 5.511-3.805 1.972-3.026.016-.025.026-.023 4.084-3.687.912-2.738.008-.026.014-.02 2.399-4.133.005-.009 2.918-4.508 2.52-6.903 1.885-5.54-1.972-4.635-.022-.06.005-.06.514-4.964.006-.072.05-.06 2.58-3.064-3.066-2.581-.067-.059-.015-.084-.513-2.91-.045-.253.256-.03 5.302-.663.649-3.081.055-.273.262.093 2.831 1 4.949-1.648 1.326-3.152.103-.244.234.126 2.513 1.337h2.629l.072.102 1.785 2.431 10.484-2.828 1.16-4.482.056-.213.216.033 2.095.32 2.649-2.979.368-.413.056.55.323 3.236 6.39.982 3.757-2.614.162-4.879-3.999-2.834-.098-.067-.005-.117-.343-6.16-.006-.126.102-.079 2.223-1.71.063-.048.078-.003 5.457-.16-5.128-11.627-2.753-1.908-4.825 2.194-.244.113-.084-.259-1.764-5.288-7.707-3.08-3.853.639-6.019 12.93-.014.029-.022.025-4.047 4.724-.172.199-.188-.185-2.921-2.92-1.864 3.316-.068.118-.137.006-5.544.222-3.764 2.878-.174.132-.15-.16-3.6-3.822-.072-.08.008-.103.674-9.897.002-.04.018-.04 3.266-7.621-4.239-1.27-.106-.033-.045-.102-2.022-4.496-.034-.076.017-.08 1.533-6.346-3.44-1.932-.13-.073.007-.149.224-6.234-2.542-4.87-2.024 1.415-.07.05-.084-.005-2.924-.225-.228-.017v-3.508l.115-.07 2.267-1.443-1.877-2.843zm-23.606 120.238l-.458-2.404-.04-.213.206-.065 2.328-.736-1.005-3.516-.063-.213.211-.08 2.783-1.044.206-.078.098.196 2.168 4.337 5.406-3.219.192-.112.129.18 1.867 2.614.003.003 1.601 1.466 2.09-.784.044-.016h3.062l.073.115 1.435 2.274.092.144-.106.135-5.617 7.147-.14.183-.188-.132-3.413-2.401-4.182.393-.081.008-.07-.045-2.453-1.547-.013-.009-2.93-2.132-3.017-.252-.182-.014-.036-.183z"/><path d="M455.035 362.495l.382 2.01 2.831.237.067.005.069.006.055.042.054.039 2.929 2.129 2.371 1.497 4.1-.385.09-.008.09-.008.072.053.074.05 3.221 2.267 5.368-6.833-1.273-2.014h-2.713l-2.048.767-.14.05-.138.054-.11-.101-.109-.098-1.597-1.467h-.003l-.02-.02-.02-.016-.014-.023-.014-.019-1.738-2.436-5.216 3.104-.224.135-.225.132-.115-.233-.118-.233-2.07-4.14-2.37.888.944 3.302.067.228.064.228-.227.07-.225.072-2.12.67z"/><path fill-rule="evenodd" clip-rule="evenodd" d="M493.838 396.2l2.185.093 2.22 4.179 17.098 1.564 11.486-6.917 3.657-.13 1.174-3.785 5.611-5.222 7.833-.392 2.348 2.219 3.264-3.003 13.838 2.221 1.957-5.352 4.699-3.264-1.958-4.828 2.09-13.054 3.524-3.525-2.35-6.266-4.96-.522 3.525-6.527 6.218-4.314-5.626-8.44-.093-.137.096-.135 1.898-2.69-3.361-1.921-.11-.066-.011-.129-.491-6.557-3.318.789-.177.042-.09-.16-2.103-3.727-4.412 2.451-.16.088-.129-.13-2.735-2.735-.147-.146.118-.169 1.568-2.19-5.438-3.626-.05-.031-.029-.056-6.945-12.872-5.59.166-2.058 1.584.328 5.915 4.008 2.842.108.076-.003.129-.172 5.134-.005.12-.099.071-3.934 2.738-.082.054-.093-.014-6.526-1.002-1.843 2.611 1.895 1.736.045.042.02.062 3.208 9.613 3.79.66.068.012.054.048 3.595 3.249.07.067.009.096.342 4.79.011.186-.174.062-5.718 2.017-2.182 5.036-.025.058-.048.04-6.407 4.887v3.345l2.972 1.98.118.078-.011.144-.343 3.937-.006.073-.047.06-2.91 3.591-.036.048-.06.022-3.69 1.511-1.328 2.157-.065.107-.124.009-4.339.334-6.777 8.981-.087.112-.14-.02-3.66-.496-4.021 3.35-.07.06h-6.421l1.261 3.785.053.16-.129.105-3.395 2.746 3.591 3.918.211.23-.278.15-3.499 1.83-1.076 3.98zm29.504-15.27l1.196-3.08.054-.135.054-.138.145-.017.144-.017 6.751-.825 1.938-4.036.14-.295.141-.295.241.221.242.222 1.547 1.416 1.613-3.814.05-.12.05-.119.127-.025.126-.025 3.421-.686v.003l.093-.02.096-.019.08.05.082.053v-.002l4.106 2.567.144.09.14.087-.03.163-.032.163-.514 2.738-.028.154-.03.158-.156.037-.15.036-2.018.472 3.43 3.145h.003l.26.241.264.242-.322.155-.32.157-14.203 6.842-.121.058-.12.06-.113-.07-.112-.07-8.213-5.134-.17-.108-.172-.106.073-.189.073-.185z"/><path d="M524.99 378.026l-1.196 3.078 8.212 5.134 14.203-6.844h-.003.003l-3.769-3.455-.34-.308.45-.108 2.46-.578.513-2.738-4.105-2.567-3.42.685-1.75 4.131-.136.317-.253-.232-1.8-1.648-1.994 4.156-.06.12-.131.017-6.884.84zm-50.817-133.68l-.147.097-.14-.109-2.712-2.132h-6.547l.03-.272.397-3.576.007-.072.045-.056 3.753-4.538 1.11-2.964-2.427-1.68-.104-.072v-3.413l-2.124-2.314-.084-.092.026-.122.963-4.618-2.463-1.894-.208-.16.178-.196 3.704-4.094-1.38-17.32-4.331-6.665 2.169-1.12 5.218-4.251.082-.066.098.012 3.081.362 1.117-5.408.01-.048.025-.038 1.522-2.28.379-3.046.014-.097.076-.063 6.403-5.084-2.752-3.3-.057-.07v-5.248l-5.58-7.892-.03-.04-.012-.055-.764-4.018-1.713-2.282-.057-.075.009-.09.183-2.285-3.444 1.722-3.915 3.002-5.352 1.567-2.087 3.654.129-5.22 10.835-11.226 6.004-10.834 2.742-9.66-8.356-9.529-7.83-.26-2.741 3.914-3.134.524 2.35-6.658-6.396-.784 2.088-3.001-3.915-3.263-3.524 1.305-5.614 8.354 1.306 4.96-6.004.391.13 1.567 2.219 3.264-4.307-.914-2.22 2.087-4.96-.913-.65-2.218-7.05.13.13 4.046-8.485 1.175-5.743 4.568-4.438.131-3.263 2.872-1.437 5.874 2.741 4.96-4.177 1.044-11.094-1.827-6.397-.13-1.958 3.524-.26 9.136 4.045 3.918 1.96 4.568h-5.614l-4.83-9.007-3.542.208.042.455 3.087 6.559.136.29-.316.052-3.323.554-.732 4.024 3.07 6.526.037.08-.02.083-.776 3.104-.03.114-.108.049-7.262 3.249-.914 3.653 4.727 6.241 5.35 1.337.152.038.028.156 1.171 6.694-.341.866v-.006l-1.891 4.796-.045.115-.12.033-4.896 1.319 1.48 3.517.036.084-.027.086-1.551 4.649 3.896 5.062.06.077-.01.097-.984 9.246 3.124 4.296.06.084-.016.102-1.167 6.608 4.65 3.488.076.056.016.099.795 4.765.018.102-.06.084-4.133 5.704-.392 5.098-.005.073-.045.058-6.378 8.106v6.308l5.208 2.994.181.104-.076.194-.932 2.398-.038.096-.094.042-4.665 2-.03.01-.035.006-3.983.497 1.724 6.086.035.118-.08.1-1.697 2.12v3.21l12.487 1.938.127.02.054.114 3.662 7.539 3.372.42.23.029-.018.23-.218 2.845-.008.101-.075.065-4.937 4.294.413 3.508 2.744 2.744 4.1 1.295.223.07-.062.225-.656 2.406-.022.082-.065.048-4.507 3.434-.213 4.483-.006.151-.025.009-.611 2.858 3.899 7.581.081.158-.125.126-1.97 1.968-.028.032-.039.016-1.664.783 1.951 5.758h3.756l3.703-.435.085-.011.073.048 2.406 1.53.181.115-.09.192-1.256 2.723 2.771 4.264.028.042.01.048.653 3.707 1.305 3.918.01.031.002.028.22 2.845.012.157-.14.076-3.155 1.68v2.532l-.02.048-1.095 2.407-.04.093-.097.036-3.408 1.279-1.84 3.884 5.487 3.862 9.032 1.18 3.918-3.267.045-.036.054-.015 2.09-.491.122-2.084.007-.124.106-.068 3.204-2.05-.25-2.25-.024-.206.203-.054 2.394-.629.765-3.19.04-.172.174-.017 11.952-1.05.597-2.753-6.673-5.976-.08-.076v-2.842l.14-.067 2.98-1.391.061-.028.064.005 3.725.374.777-11.672.005-.048.024-.048 2.384-4.57.058-.112.123-.016 4.007-.574.735-3.313-4.118-6.47-.076-.122.067-.127 3.777-6.953.065-.121.138-.006 9.224-.393 2.514-3.286.245-.32.168.365 3.479 7.535 2.004-.834-.382-4.392-.009-.108.073-.078 8.889-9.68.58-3.86-.026-.123 4.763-2.191.101.222 2.154 4.696 4.033 2.385.91-3.27.017-.064.042-.045 2.28-2.278-.904-2.714-2.061-.561-.194-.053.014-.2.2-2.583.008-.085.059-.064 3.092-3.284-.542-2.522-4.235-1.348-.124-.039-.036-.12-1.194-3.975-.034-.115.074-.098 2.09-2.85-1.905-3.242-.121-.205.202-.126 5.109-3.143 2.916-5.636-.385-4.447-1.958-3.129-.068-.11.054-.117 1.946-4.28-.958-2.489-.013-.036-.003-.039-.2-3.972-.005-.166.151-.067 3.575-1.589.026-.012.025-.006 3.696-.777 1.598-1.775-1.32-1.652zm305.887-5.994l-1.045-13.054-1.436-6.005-4.308-4.307.39-6.396 2.219-1.828-7.44-8.616.132-6.003 3.132-3.394-.784-3.394-6.266-1.828-6.395-11.355 1.567-1.045 1.958 2.741 3.131-1.958-4.827-4.568-2.612 1.435-4.168-2.705-.07.078-2.157-5.074h-4.309l-.522 3.002-2.741-.262-8.875-17.752.522-5.612 3.525-.783-2.612-10.442 5.615 4.438.129-12.532 4.437-4.569 6.656-.13-3.783-9.268-1.809-19.964-4.308 1.306-.096.03-.087-.048-3.207-1.687-5.544 15.92-.06.168-.176-.006-7.052-.18-6.51 1.988-.22.069-.078-.218-2.12-5.831-8.78.527-1.573 2.794-.053.093-.104.025-6.052 1.424-1.048 3.145-.048.148-.157.016-3.292.346-1.044 3.662-.037.125-.123.039-3.8 1.209.682 3.739 5.457 7.932 3.387.711.13.028.047.124 2.317 6.06 3.848-.352.107-.009.078.074 2.567 2.382.059.054.014.079.713 3.736 3.54 2 2.452-2.288-6.657-7.962 1.565-5.222 6.397-2.22-3.395 5.093.783 3.916 5.092 3.524 2.348.13-.13 3.654 2.22.524-2.09 10.442 2.35 3.915.784 12.14 1.83 7.832 2.479 7.832-2.873 3.133.913 3.002-1.565 2.088 4.044 4.699.655 7.44 5.552 6.272v-.001l6.586 7.436zm-542.24-18.94l-.067-.01-.053-.043-7.43-6.094-2.664 1.471-.068.037-.076-.008-7.318-.832.007-.05-4.881-2.535-.04-.02-.03-.035-4.49-5.063-5.826-.554-1.723 4.258 4.115 5.44.043.058.004.074.244 3.886.011.17-.16.067-6.772 2.851v2.282l1.86 1.626.169.145-2.127 2.846-.006-.02-1.85 2.078-2.497 6.432-.016.045-.031.033-2.102 2.25-1.354 3.536-.016.042-.03.036-2.286 2.511-.078.088-.119-.006-1.953-.134-.068 4.819 2.185-.068.25-.008v3.828l4.793.217.215.01.017.214.215 2.718 2.037.492.147.036.032.147.305 1.373.005.014.296 1.921.704.963 1.822-.474 4.034-4.772.062-.076.098-.009 4.57-.48 2.896-4.59.174-.272.213.24 2.082 2.314 1.84-1.191.718-3.233.042-.182.183-.008 5.072-.242 1.368-1.707.362-3.508.009-.076.05-.057 2.235-2.589-1.65-3.184-.03-.06.002-.064.123-2.59.008-.149.135-.061 5.39-2.45 6.244-6.125 4.17-5.517.78-1.787zM18.355 252.524l2.807-3.273-6.314-8.3 3.741-10.64-2.689-2.221-2.338 1.637-9.236-6.314-1.17 1.87.351 7.483L0 236.506l.935 5.145 6.08-.35 6.78 8.535z"/></g></svg>