<?xml version="1.0" standalone="no"?>
<!DOCTYPE svg PUBLIC "-//W3C//DTD SVG 20010904//EN"
 "http://www.w3.org/TR/2001/REC-SVG-20010904/DTD/svg10.dtd">
<svg version="1.0" xmlns="http://www.w3.org/2000/svg"
 width="700.000000pt" height="700.000000pt" viewBox="0 0 700.000000 700.000000"
 preserveAspectRatio="xMidYMid meet">
<metadata>
Created by potrace 1.11, written by Peter Selinger 2001-2013
</metadata>
<g transform="translate(0.000000,700.000000) scale(0.100000,-0.100000)"
fill="#000000" stroke="none">
<path d="M3298 6995 c-1 -1 -41 -5 -88 -9 -366 -27 -785 -136 -1130 -293 -399
-182 -732 -413 -1035 -717 -168 -169 -190 -193 -291 -321 -70 -89 -194 -261
-194 -269 0 -3 -17 -31 -38 -63 -81 -122 -251 -463 -277 -553 -4 -14 -11 -29
-15 -35 -8 -11 -78 -221 -109 -330 -24 -84 -78 -348 -87 -425 -3 -30 -8 -66
-10 -80 -24 -143 -25 -709 0 -835 2 -11 7 -47 11 -80 16 -136 58 -322 107
-475 39 -123 155 -378 187 -412 3 -4 6 383 6 860 1 775 5 1028 19 1050 2 4 7
30 10 57 3 28 17 93 31 145 93 346 295 672 555 899 127 109 138 118 295 219
76 48 332 161 402 177 10 2 43 11 73 20 54 15 81 21 138 29 15 3 47 8 72 12
94 14 291 20 390 10 199 -20 455 -97 650 -197 158 -80 395 -245 479 -333 19
-20 39 -36 44 -36 4 0 52 44 105 98 152 152 338 274 542 354 71 28 289 85 354
93 23 3 58 7 78 11 85 13 279 19 328 10 14 -2 48 -7 75 -11 129 -16 382 -85
505 -137 254 -108 470 -250 649 -427 237 -234 388 -484 472 -782 18 -66 58
-276 59 -314 1 -11 2 -419 4 -908 1 -488 5 -889 7 -891 7 -8 147 387 194 547
46 160 99 407 111 517 3 36 10 87 14 113 8 51 5 461 -4 532 -3 22 -8 65 -11
95 -25 221 -86 488 -163 710 -142 412 -366 803 -655 1145 -91 107 -359 368
-472 458 -404 323 -861 550 -1350 673 -77 19 -153 37 -170 40 -16 2 -55 9 -85
14 -81 14 -109 18 -170 25 -30 4 -68 8 -85 11 -35 5 -522 14 -527 9z"/>
<path d="M1948 4654 c-409 -64 -732 -401 -774 -809 -4 -33 -7 -705 -8 -1494
l-1 -1434 100 -79 c385 -305 856 -533 1350 -653 163 -40 284 -62 425 -79 272
-32 669 -24 893 20 12 2 39 6 62 9 75 11 258 55 379 91 317 95 579 211 860
380 132 80 385 262 416 299 13 16 15 212 18 1464 2 795 4 1473 4 1506 9 399
-353 706 -836 707 -463 1 -866 -362 -913 -824 -4 -35 -7 -726 -7 -1535 l0
-1473 -458 0 -458 0 -1 1528 c0 840 -2 1547 -5 1572 -24 204 -117 394 -266
543 -211 210 -495 306 -780 261z"/>
</g>
</svg>
